<svg width="41" height="62" viewBox="0 0 41 62" fill="none" xmlns="http://www.w3.org/2000/svg">
<g filter="url(#filter0_d_2046_684)">
<path d="M14.6409 3.43196C15.398 1.9121 17.1403 0.133152 19.6129 0.795671L33.9228 4.63165C36.4023 5.29274 37.0198 7.70564 36.9124 9.39958C36.8549 10.3177 36.6074 11.2139 36.1857 12.0315C35.7738 12.8237 35.1315 13.6136 34.2162 14.0796C33.7689 14.2973 33.3138 14.4984 32.8517 14.6826L32.7077 14.7397C32.2118 14.9385 31.724 15.1568 31.2453 15.394C30.2333 15.9133 29.9504 16.2978 29.8969 16.4848L27.8437 24.1539C27.7777 24.4002 27.7831 24.8604 28.0202 25.6137C28.2496 26.3401 28.6447 27.1687 29.1363 28.0562C29.6095 28.9074 30.1369 29.7533 30.6483 30.5669L30.7032 30.6575C31.2092 31.4663 31.7254 32.2927 32.0665 32.9782C33.1016 35.064 32.3894 37.4507 31.2429 39.0263C30.0952 40.5999 27.9932 42.0399 25.5811 41.3919L18.653 39.5355L15.2662 52.1754C15.2152 52.3967 15.1202 52.6054 14.9868 52.7891C14.8534 52.9728 14.6844 53.1277 14.4898 53.2447C14.2952 53.3617 14.0791 53.4382 13.8542 53.4699C13.6294 53.5015 13.4005 53.4875 13.1812 53.4287C12.9619 53.37 12.7567 53.2676 12.5778 53.1278C12.399 52.9881 12.2501 52.8137 12.14 52.6151C12.03 52.4165 11.9611 52.1978 11.9374 51.972C11.9138 51.7462 11.9358 51.518 12.0023 51.3009L15.3872 38.6621L8.4591 36.8057C6.047 36.1578 4.94583 33.8628 4.74065 31.925C4.53352 29.9884 5.1121 27.5643 7.04951 26.2766C7.68955 25.8524 8.54976 25.3948 9.39241 24.9473L9.48529 24.8963C10.3338 24.4454 11.2146 23.9785 12.0501 23.478C12.9195 22.9552 13.676 22.4351 14.2379 21.9207C14.8199 21.3869 15.0535 20.9891 15.1195 20.7428L17.1739 13.0757C17.2242 12.8879 17.1704 12.4114 16.5516 11.4569C16.2557 11.0121 15.9423 10.5791 15.6123 10.159L15.5181 10.0364C15.21 9.64585 14.9164 9.24409 14.6379 8.83195C14.0763 7.97192 13.9149 6.96668 13.9523 6.07574C13.9908 5.16859 14.2364 4.24597 14.6409 3.43196Z" fill="#55A077"/>
</g>
<defs>
<filter id="filter0_d_2046_684" x="0.699219" y="0.65332" width="40.2266" height="60.833" filterUnits="userSpaceOnUse" color-interpolation-filters="sRGB">
<feFlood flood-opacity="0" result="BackgroundImageFix"/>
<feColorMatrix in="SourceAlpha" type="matrix" values="0 0 0 0 0 0 0 0 0 0 0 0 0 0 0 0 0 0 127 0" result="hardAlpha"/>
<feOffset dy="4"/>
<feGaussianBlur stdDeviation="2"/>
<feComposite in2="hardAlpha" operator="out"/>
<feColorMatrix type="matrix" values="0 0 0 0 0 0 0 0 0 0 0 0 0 0 0 0 0 0 0.25 0"/>
<feBlend mode="normal" in2="BackgroundImageFix" result="effect1_dropShadow_2046_684"/>
<feBlend mode="normal" in="SourceGraphic" in2="effect1_dropShadow_2046_684" result="shape"/>
</filter>
</defs>
</svg>
