<svg width="44" height="60" viewBox="0 0 44 60" fill="none" xmlns="http://www.w3.org/2000/svg">
<g filter="url(#filter0_d_2046_685)">
<path d="M4.86113 11.3443C4.51991 9.68092 4.79454 7.20608 7.14958 6.20295L20.7804 0.398656C23.14 -0.609901 25.114 0.908883 26.0741 2.30864C26.5949 3.06692 26.9527 3.92503 27.125 4.8287C27.2892 5.70639 27.2706 6.72433 26.8374 7.65554C26.6195 8.10271 26.3852 8.54171 26.135 8.97165L26.0569 9.10542C25.7891 9.56769 25.5396 10.0404 25.3091 10.5223C24.8326 11.5551 24.847 12.0324 24.9203 12.2125L28.0329 19.516C28.1329 19.7506 28.4209 20.1096 29.072 20.5564C29.7006 20.9868 30.5226 21.3955 31.4568 21.791C32.3543 22.1693 33.2911 22.51 34.1954 22.8352L34.2945 22.8726C35.1916 23.1974 36.1075 23.5296 36.7987 23.8589C38.8998 24.8627 39.811 27.1807 39.8799 29.1281C39.9467 31.0746 39.1799 33.5044 36.8815 34.4817L30.2827 37.2925L35.4107 49.3316C35.507 49.5372 35.5609 49.7601 35.5692 49.987C35.5774 50.2139 35.5399 50.4401 35.4589 50.6521C35.3778 50.8642 35.2549 51.0578 35.0974 51.2213C34.9399 51.3848 34.7511 51.5149 34.5422 51.6039C34.3333 51.6929 34.1087 51.7389 33.8817 51.7391C33.6546 51.7394 33.4299 51.6939 33.2208 51.6054C33.0117 51.517 32.8226 51.3873 32.6648 51.2241C32.5069 51.0609 32.3835 50.8677 32.302 50.6558L27.1731 38.6187L20.5743 41.4295C18.2758 42.4068 15.9937 41.2791 14.6373 39.8801C13.28 38.4833 12.2407 36.2182 12.9718 34.0097C13.2141 33.2811 13.6091 32.3904 13.9966 31.5185L14.0382 31.4211C14.4282 30.5429 14.8337 29.6322 15.1827 28.723C15.5448 27.7753 15.8197 26.8994 15.9448 26.1479C16.0738 25.3688 16.0124 24.9116 15.9125 24.677L12.8019 17.3743C12.7257 17.1954 12.3895 16.8535 11.3138 16.4836C10.8066 16.3159 10.2929 16.1683 9.77399 16.0411L9.62423 16.0027C9.14087 15.8852 8.66199 15.75 8.18858 15.5973C7.21612 15.2665 6.46925 14.5746 5.94931 13.8502C5.42019 13.1123 5.04458 12.2346 4.86113 11.3443Z" fill="#A92622"/>
</g>
<defs>
<filter id="filter0_d_2046_685" x="0.742188" y="0.0712891" width="43.1406" height="59.668" filterUnits="userSpaceOnUse" color-interpolation-filters="sRGB">
<feFlood flood-opacity="0" result="BackgroundImageFix"/>
<feColorMatrix in="SourceAlpha" type="matrix" values="0 0 0 0 0 0 0 0 0 0 0 0 0 0 0 0 0 0 127 0" result="hardAlpha"/>
<feOffset dy="4"/>
<feGaussianBlur stdDeviation="2"/>
<feComposite in2="hardAlpha" operator="out"/>
<feColorMatrix type="matrix" values="0 0 0 0 0 0 0 0 0 0 0 0 0 0 0 0 0 0 0.25 0"/>
<feBlend mode="normal" in2="BackgroundImageFix" result="effect1_dropShadow_2046_685"/>
<feBlend mode="normal" in="SourceGraphic" in2="effect1_dropShadow_2046_685" result="shape"/>
</filter>
</defs>
</svg>
