<svg width="46" height="59" viewBox="0 0 46 59" fill="none" xmlns="http://www.w3.org/2000/svg">
<g filter="url(#filter0_d_2046_686)">
<path d="M21.0883 2.36761C22.2129 1.09548 24.3563 -0.171913 26.5731 1.10798L39.4026 8.51693C41.6265 9.79724 41.5984 12.2877 41.0563 13.8962C40.7631 14.7681 40.2921 15.5697 39.6732 16.2503C39.0703 16.909 38.2454 17.5057 37.2407 17.7189C36.7523 17.8134 36.2606 17.8898 35.7666 17.9482L35.6127 17.9661C35.0823 18.0297 34.5546 18.1143 34.0308 18.2196C32.9189 18.4592 32.5461 18.7574 32.4461 18.9243L28.4779 25.8005C28.3504 26.0214 28.2365 26.4673 28.2705 27.2563C28.3041 28.0174 28.4713 28.92 28.7164 29.9045C28.9532 30.8491 29.2437 31.8027 29.5271 32.7209L29.5567 32.8227C29.8361 33.7349 30.1208 34.6668 30.2729 35.4171C30.7328 37.6998 29.4273 39.8208 27.912 41.0459C26.3961 42.2689 23.9931 43.1158 21.8309 41.8656L15.6193 38.2794L9.07644 49.612C8.96993 49.8125 8.82413 49.9895 8.64773 50.1324C8.47134 50.2753 8.26797 50.3813 8.04974 50.4439C7.83152 50.5065 7.60292 50.5245 7.37758 50.4969C7.15224 50.4692 6.93478 50.3965 6.73817 50.283C6.54155 50.1695 6.36982 50.0175 6.23321 49.8362C6.09659 49.6549 5.9979 49.4479 5.94302 49.2276C5.88814 49.0073 5.87819 48.7782 5.91377 48.554C5.94935 48.3297 6.02973 48.115 6.15011 47.9225L12.6908 36.5904L6.47928 33.0042C4.31707 31.754 3.84741 29.2522 4.15075 27.3274C4.45191 25.4032 5.63818 23.2114 7.84286 22.469C8.57089 22.2249 9.52023 22.0055 10.45 21.7914L10.5529 21.7662C11.4892 21.5503 12.4609 21.3273 13.3974 21.06C14.3725 20.78 15.2378 20.4735 15.9137 20.1221C16.614 19.7571 16.9426 19.4333 17.0701 19.2124L21.0389 12.3383C21.1361 12.1699 21.2074 11.6958 20.8568 10.6136C20.6861 10.1073 20.4955 9.60803 20.2854 9.11684L20.2261 8.97403C20.0296 8.51704 19.85 8.05299 19.6877 7.5828C19.3678 6.60672 19.4721 5.59398 19.7389 4.74308C20.0108 3.87679 20.4868 3.04917 21.0883 2.36761Z" fill="#FFC857"/>
</g>
<defs>
<filter id="filter0_d_2046_686" x="0.0664062" y="0.575195" width="45.2969" height="57.9346" filterUnits="userSpaceOnUse" color-interpolation-filters="sRGB">
<feFlood flood-opacity="0" result="BackgroundImageFix"/>
<feColorMatrix in="SourceAlpha" type="matrix" values="0 0 0 0 0 0 0 0 0 0 0 0 0 0 0 0 0 0 127 0" result="hardAlpha"/>
<feOffset dy="4"/>
<feGaussianBlur stdDeviation="2"/>
<feComposite in2="hardAlpha" operator="out"/>
<feColorMatrix type="matrix" values="0 0 0 0 0 0 0 0 0 0 0 0 0 0 0 0 0 0 0.25 0"/>
<feBlend mode="normal" in2="BackgroundImageFix" result="effect1_dropShadow_2046_686"/>
<feBlend mode="normal" in="SourceGraphic" in2="effect1_dropShadow_2046_686" result="shape"/>
</filter>
</defs>
</svg>
