<svg width="1246" height="307" viewBox="0 0 1246 307" fill="none" xmlns="http://www.w3.org/2000/svg">
<g filter="url(#filter0_d_247_11)">
<path d="M651.649 126.656C651.649 125.936 652.129 125.384 653.089 125H681.889C682.465 125 683.161 125.36 683.977 126.08C684.985 126.992 685.633 127.52 685.921 127.664C687.313 128.288 689.665 128.6 692.977 128.6C694.417 128.6 695.713 128.36 696.865 127.88C698.353 127.208 699.097 126.248 699.097 125C699.097 123.224 697.417 122.168 694.057 121.832C689.545 121.448 685.033 121.088 680.521 120.752C674.425 120.128 669.433 119.24 665.545 118.088C660.361 116.552 656.665 114.392 654.457 111.608C653.017 109.88 652.249 108.344 652.153 107C652.105 106.28 652.081 105.248 652.081 103.904C652.081 100.256 652.705 97.304 653.953 95.048C658.465 86.792 670.489 82.664 690.025 82.664C706.537 82.664 717.337 86.528 722.425 94.256C723.913 96.608 724.657 98.384 724.657 99.584C724.657 99.872 724.201 100.232 723.289 100.664H714.361C713.929 100.664 709.129 100.544 699.961 100.304C698.377 100.256 697.153 100.232 696.289 100.232C695.473 100.04 694.081 99.32 692.113 98.072C690.577 97.064 688.585 96.56 686.137 96.56C681.433 96.56 679.081 97.64 679.081 99.8C679.081 101.288 680.617 102.32 683.689 102.896C691.465 104 697.417 104.744 701.545 105.128C708.601 105.944 713.377 106.856 715.873 107.864C722.929 110.744 726.457 115.832 726.457 123.128C726.457 130.088 723.505 135.152 717.601 138.32C713.809 140.336 707.761 141.824 699.457 142.784C695.281 143.264 691.585 143.504 688.369 143.504C679.585 143.504 673.129 142.976 669.001 141.92C662.137 140.24 656.977 136.688 653.521 131.264C652.273 129.344 651.649 127.808 651.649 126.656ZM727.869 85.472L728.733 84.536C733.917 84.248 736.893 84.104 737.661 84.104H778.053C780.837 84.104 786.141 84.248 793.965 84.536L794.901 85.472V99.152H774.669C774.285 99.344 773.829 99.728 773.301 100.304C773.301 99.536 773.157 104.936 772.869 116.504C772.629 127.496 772.461 135.752 772.365 141.272L771.933 142.136H751.269C750.357 142.136 749.901 141.68 749.901 140.768V102.104C749.901 100.328 749.445 99.44 748.533 99.44C747.477 99.44 745.533 99.464 742.701 99.512C739.869 99.56 737.733 99.584 736.293 99.584C733.941 99.584 732.021 99.512 730.533 99.368C728.757 99.272 727.869 98.84 727.869 98.072V85.472ZM832.066 143.864C829.954 143.864 825.394 143.408 818.386 142.496C810.802 141.488 805.234 138.896 801.682 134.72C798.13 130.496 796.354 124.544 796.354 116.864C796.354 113.36 796.426 108.104 796.57 101.096C796.714 94.088 796.786 88.832 796.786 85.328C797.65 84.464 798.25 84.032 798.586 84.032H817.954C819.154 84.032 819.754 84.632 819.754 85.832V119.096C819.754 122.216 821.074 124.712 823.714 126.584C826.066 128.216 828.874 129.032 832.138 129.032C836.074 129.032 839.074 127.832 841.138 125.432C842.098 124.28 842.818 122.888 843.298 121.256C843.922 119.24 844.258 115.976 844.306 111.464C844.306 108.056 844.306 104.624 844.306 101.168L844.522 85.328L845.386 84.464C850.234 84.128 853.93 83.96 856.474 83.96C859.546 83.96 862.906 84.128 866.554 84.464C867.178 85.616 867.49 88.904 867.49 94.328V116.864C866.962 117.44 866.626 118.856 866.482 121.112C866.29 124.04 866.17 125.624 866.122 125.864C863.386 137.864 852.034 143.864 832.066 143.864ZM869.348 112.4C869.06 112.112 868.916 111.68 868.916 111.104C868.916 110.48 869.06 110.024 869.348 109.736C869.588 107.192 869.732 103.136 869.78 97.568C869.78 92.288 869.948 88.232 870.284 85.4C870.716 84.632 871.46 84.2 872.516 84.104C875.444 83.96 877.652 83.888 879.14 83.888C879.908 83.888 882.5 83.84 886.916 83.744C890.084 83.648 892.676 83.6 894.692 83.6H913.124C915.572 83.6 918.092 83.768 920.684 84.104C921.5 84.68 922.748 85.112 924.428 85.4C926.348 85.688 927.644 86 928.316 86.336C939.74 91.76 945.452 99.32 945.452 109.016C945.452 111.896 945.14 116.48 944.516 122.768C944.228 123.248 943.436 125.024 942.14 128.096C941.18 130.256 940.172 131.936 939.116 133.136C935.66 136.976 931.268 139.472 925.94 140.624C923.444 141.2 918.332 141.608 910.604 141.848C904.988 142.04 900.068 142.136 895.844 142.136H871.148C869.948 141.512 869.348 141.056 869.348 140.768V112.4ZM892.748 124.568C892.748 126.2 894.164 127.016 896.996 127.016C901.7 127.016 905.732 126.8 909.092 126.368C913.46 125.84 916.556 124.184 918.38 121.4C919.916 119 920.684 115.472 920.684 110.816C920.684 108.032 919.484 105.368 917.084 102.824C914.732 100.232 912.188 98.936 909.452 98.936H894.548C893.972 98.936 893.612 99.2 893.468 99.728C892.988 101.36 892.748 104.84 892.748 110.168V124.568ZM947.829 142.136L946.893 141.2C946.893 140.432 946.893 139.304 946.893 137.816C946.845 136.328 946.821 135.2 946.821 134.432V124.136C946.821 113.864 946.917 105.344 947.109 98.576C947.301 91.808 947.541 87.272 947.829 84.968C948.069 84.68 948.285 84.488 948.477 84.392C949.533 83.864 953.997 83.6 961.869 83.6H972.021C977.109 83.6 983.061 83.648 989.877 83.744C1003.22 83.936 1010.49 84.056 1011.69 84.104C1012.7 84.152 1013.3 84.44 1013.49 84.968C1013.83 85.88 1014 87.56 1014 90.008C1014 93.32 1013.83 95.984 1013.49 98L1013.06 98.504C1006.53 98.84 1000.29 99.008 994.341 99.008H979.221C974.037 99.008 971.373 99.08 971.229 99.224C970.893 99.608 970.725 100.328 970.725 101.384C970.725 103.592 971.013 104.816 971.589 105.056C972.549 105.488 973.917 105.704 975.693 105.704C989.133 105.704 999.045 105.848 1005.43 106.136L1006.29 107V108.296C1006.29 113.24 1006.15 116.864 1005.86 119.168C1005.76 120.08 1005.31 120.536 1004.49 120.536H972.093C970.893 120.536 970.293 121.832 970.293 124.424C970.293 126.2 971.781 127.136 974.757 127.232C975.429 127.28 981.453 127.304 992.829 127.304C995.373 127.304 999.189 127.376 1004.28 127.52C1009.36 127.664 1013.18 127.736 1015.72 127.736C1016.35 128.072 1016.66 128.672 1016.66 129.536V139.904C1016.66 140.24 1016.49 140.696 1016.16 141.272C1015.87 141.848 1015.58 142.136 1015.29 142.136H947.829ZM1019.49 141.704C1018.58 141.032 1018.12 140.432 1018.12 139.904V112.328L1018.19 110.096C1018.29 100.496 1018.36 95 1018.41 93.608C1018.46 90.296 1018.5 87.56 1018.55 85.4C1018.84 84.2 1019.9 83.6 1021.72 83.6C1024.17 83.6 1027.84 83.696 1032.74 83.888C1037.63 84.032 1041.3 84.104 1043.75 84.104C1044.52 84.632 1047.86 88.304 1053.76 95.12C1059.52 101.696 1062.62 105.344 1063.05 106.064C1063.48 106.736 1063.79 107.216 1063.98 107.504C1065.86 109.664 1066.84 110.792 1066.94 110.888L1067.22 111.032C1067.8 110.888 1068.3 110.816 1068.74 110.816V85.904C1068.74 85.424 1069.26 84.656 1070.32 83.6H1079.54C1080.69 83.6 1082.44 83.696 1084.79 83.888C1087.19 84.032 1088.97 84.104 1090.12 84.104C1091.03 84.104 1091.49 84.824 1091.49 86.264V114.2C1091.49 116.504 1091.44 119.48 1091.34 123.128C1091.25 128.072 1091.2 131.048 1091.2 132.056C1091.15 135.464 1091.1 138.08 1091.06 139.904C1090.86 141.44 1089.69 142.208 1087.53 142.208C1080.47 142.208 1073.68 142.04 1067.15 141.704C1066 141.176 1064.51 139.808 1062.69 137.6L1042.46 113.336C1042.26 113.288 1042.12 113.264 1042.02 113.264C1041.26 113.264 1040.87 113.432 1040.87 113.768V140.336C1040.25 141.104 1039.86 141.56 1039.72 141.704C1032.09 141.992 1027.55 142.136 1026.11 142.136C1024 142.136 1021.79 141.992 1019.49 141.704ZM1092.93 85.472L1093.8 84.536C1098.98 84.248 1101.96 84.104 1102.72 84.104H1143.12C1145.9 84.104 1151.2 84.248 1159.03 84.536L1159.96 85.472V99.152H1139.73C1139.35 99.344 1138.89 99.728 1138.36 100.304C1138.36 99.536 1138.22 104.936 1137.93 116.504C1137.69 127.496 1137.52 135.752 1137.43 141.272L1137 142.136H1116.33C1115.42 142.136 1114.96 141.68 1114.96 140.768V102.104C1114.96 100.328 1114.51 99.44 1113.6 99.44C1112.54 99.44 1110.6 99.464 1107.76 99.512C1104.93 99.56 1102.8 99.584 1101.36 99.584C1099 99.584 1097.08 99.512 1095.6 99.368C1093.82 99.272 1092.93 98.84 1092.93 98.072V85.472ZM1161.34 126.656C1161.34 125.936 1161.82 125.384 1162.78 125H1191.58C1192.16 125 1192.86 125.36 1193.67 126.08C1194.68 126.992 1195.33 127.52 1195.62 127.664C1197.01 128.288 1199.36 128.6 1202.67 128.6C1204.11 128.6 1205.41 128.36 1206.56 127.88C1208.05 127.208 1208.79 126.248 1208.79 125C1208.79 123.224 1207.11 122.168 1203.75 121.832C1199.24 121.448 1194.73 121.088 1190.22 120.752C1184.12 120.128 1179.13 119.24 1175.24 118.088C1170.06 116.552 1166.36 114.392 1164.15 111.608C1162.71 109.88 1161.94 108.344 1161.85 107C1161.8 106.28 1161.78 105.248 1161.78 103.904C1161.78 100.256 1162.4 97.304 1163.65 95.048C1168.16 86.792 1180.18 82.664 1199.72 82.664C1216.23 82.664 1227.03 86.528 1232.12 94.256C1233.61 96.608 1234.35 98.384 1234.35 99.584C1234.35 99.872 1233.9 100.232 1232.98 100.664H1224.06C1223.62 100.664 1218.82 100.544 1209.66 100.304C1208.07 100.256 1206.85 100.232 1205.98 100.232C1205.17 100.04 1203.78 99.32 1201.81 98.072C1200.27 97.064 1198.28 96.56 1195.83 96.56C1191.13 96.56 1188.78 97.64 1188.78 99.8C1188.78 101.288 1190.31 102.32 1193.38 102.896C1201.16 104 1207.11 104.744 1211.24 105.128C1218.3 105.944 1223.07 106.856 1225.57 107.864C1232.62 110.744 1236.15 115.832 1236.15 123.128C1236.15 130.088 1233.2 135.152 1227.3 138.32C1223.5 140.336 1217.46 141.824 1209.15 142.784C1204.98 143.264 1201.28 143.504 1198.06 143.504C1189.28 143.504 1182.82 142.976 1178.7 141.92C1171.83 140.24 1166.67 136.688 1163.22 131.264C1161.97 129.344 1161.34 127.808 1161.34 126.656Z" fill="#D3312A"/>
</g>
<g filter="url(#filter1_d_247_11)">
<path d="M265.585 216.136C265.153 215.704 264.865 215.392 264.721 215.2V214.984C264.721 214.312 265.009 213.352 265.585 212.104L289.489 159.904C289.921 159.424 290.353 158.968 290.785 158.536C295.681 158.2 301.081 158.032 306.985 158.032L315.985 158.104C317.089 158.104 317.857 158.536 318.289 159.4C319.633 161.992 321.313 165.736 323.329 170.632C325.441 175.96 327.049 179.728 328.153 181.936L342.121 215.2C342.121 216.16 341.377 216.64 339.889 216.64C339.793 216.64 334.561 216.496 324.193 216.208C322.033 216.208 320.353 216.184 319.153 216.136C318.385 215.992 317.641 215.344 316.921 214.192C315.865 212.56 315.313 211.696 315.265 211.6C314.689 210.976 312.169 210.664 307.705 210.664C305.833 210.664 303.001 210.76 299.209 210.952C295.465 211.096 292.657 211.168 290.785 211.168C289.921 211.648 289.033 213.16 288.121 215.704C287.353 216.376 286.057 216.712 284.233 216.712C282.265 216.712 276.049 216.52 265.585 216.136ZM297.049 194.392C297.049 195.16 297.289 195.544 297.769 195.544C297.913 195.544 298.129 195.52 298.417 195.472C298.753 195.424 299.017 195.4 299.209 195.4C304.633 195.4 306.217 195.424 303.961 195.472C306.601 195.424 307.921 195.04 307.921 194.32C307.921 193.408 307.129 191.104 305.545 187.408C303.961 183.712 302.881 181.864 302.305 181.864C301.537 181.864 300.433 183.736 298.993 187.48C297.697 190.984 297.049 193.288 297.049 194.392ZM343.469 200.656C343.469 199.936 343.949 199.384 344.909 199H373.709C374.285 199 374.981 199.36 375.797 200.08C376.805 200.992 377.453 201.52 377.741 201.664C379.133 202.288 381.485 202.6 384.797 202.6C386.237 202.6 387.533 202.36 388.685 201.88C390.173 201.208 390.917 200.248 390.917 199C390.917 197.224 389.237 196.168 385.877 195.832C381.365 195.448 376.853 195.088 372.341 194.752C366.245 194.128 361.253 193.24 357.365 192.088C352.181 190.552 348.485 188.392 346.277 185.608C344.837 183.88 344.069 182.344 343.973 181C343.925 180.28 343.901 179.248 343.901 177.904C343.901 174.256 344.525 171.304 345.773 169.048C350.285 160.792 362.309 156.664 381.845 156.664C398.357 156.664 409.157 160.528 414.245 168.256C415.733 170.608 416.477 172.384 416.477 173.584C416.477 173.872 416.021 174.232 415.109 174.664H406.181C405.749 174.664 400.949 174.544 391.781 174.304C390.197 174.256 388.973 174.232 388.109 174.232C387.293 174.04 385.901 173.32 383.933 172.072C382.397 171.064 380.405 170.56 377.957 170.56C373.253 170.56 370.901 171.64 370.901 173.8C370.901 175.288 372.437 176.32 375.509 176.896C383.285 178 389.237 178.744 393.365 179.128C400.421 179.944 405.197 180.856 407.693 181.864C414.749 184.744 418.277 189.832 418.277 197.128C418.277 204.088 415.325 209.152 409.421 212.32C405.629 214.336 399.581 215.824 391.277 216.784C387.101 217.264 383.405 217.504 380.189 217.504C371.405 217.504 364.949 216.976 360.821 215.92C353.957 214.24 348.797 210.688 345.341 205.264C344.093 203.344 343.469 201.808 343.469 200.656ZM419.618 200.656C419.618 199.936 420.098 199.384 421.058 199H449.858C450.434 199 451.13 199.36 451.946 200.08C452.954 200.992 453.602 201.52 453.89 201.664C455.282 202.288 457.634 202.6 460.946 202.6C462.386 202.6 463.682 202.36 464.834 201.88C466.322 201.208 467.066 200.248 467.066 199C467.066 197.224 465.386 196.168 462.026 195.832C457.514 195.448 453.002 195.088 448.49 194.752C442.394 194.128 437.402 193.24 433.514 192.088C428.33 190.552 424.634 188.392 422.426 185.608C420.986 183.88 420.218 182.344 420.122 181C420.074 180.28 420.05 179.248 420.05 177.904C420.05 174.256 420.674 171.304 421.922 169.048C426.434 160.792 438.458 156.664 457.994 156.664C474.506 156.664 485.306 160.528 490.394 168.256C491.882 170.608 492.626 172.384 492.626 173.584C492.626 173.872 492.17 174.232 491.258 174.664H482.33C481.898 174.664 477.098 174.544 467.93 174.304C466.346 174.256 465.122 174.232 464.258 174.232C463.442 174.04 462.05 173.32 460.082 172.072C458.546 171.064 456.554 170.56 454.106 170.56C449.402 170.56 447.05 171.64 447.05 173.8C447.05 175.288 448.586 176.32 451.658 176.896C459.434 178 465.386 178.744 469.514 179.128C476.57 179.944 481.346 180.856 483.842 181.864C490.898 184.744 494.426 189.832 494.426 197.128C494.426 204.088 491.474 209.152 485.57 212.32C481.778 214.336 475.73 215.824 467.426 216.784C463.25 217.264 459.554 217.504 456.338 217.504C447.554 217.504 441.098 216.976 436.97 215.92C430.106 214.24 424.946 210.688 421.49 205.264C420.242 203.344 419.618 201.808 419.618 200.656ZM495.838 188.992C495.838 177.76 499.438 169.36 506.638 163.792C513.166 158.752 522.19 156.232 533.71 156.232C561.55 156.232 575.47 166.312 575.47 186.472C575.47 191.608 574.294 196.528 571.942 201.232C566.47 212.032 556.006 217.432 540.55 217.432C529.894 217.432 522.166 216.808 517.366 215.56C509.11 213.448 503.134 208.984 499.438 202.168C497.038 197.752 495.838 193.36 495.838 188.992ZM521.038 188.632C521.038 192.904 522.67 196.288 525.934 198.784C528.91 201.04 532.606 202.168 537.022 202.168C540.67 202.168 543.814 200.584 546.454 197.416C548.998 194.392 550.27 191.032 550.27 187.336C550.27 184.36 549.694 181.624 548.542 179.128C547.198 176.2 545.278 174.256 542.782 173.296C542.542 173.248 541.654 173.008 540.118 172.576C539.062 172.288 538.246 171.952 537.67 171.568C537.43 171.568 537.022 171.544 536.446 171.496C535.918 171.496 535.51 171.496 535.222 171.496C530.662 171.496 527.086 173.272 524.494 176.824C522.19 179.992 521.038 183.928 521.038 188.632ZM576.836 188.272L576.908 185.032C577.484 181.336 578.372 178.048 579.572 175.168C584.756 162.832 597.164 156.664 616.796 156.664C622.604 156.664 628.076 157.24 633.212 158.392C639.5 159.832 644.588 161.824 648.476 164.368C650.06 165.424 651.692 167.464 653.372 170.488C654.908 173.32 655.676 175.768 655.676 177.832V179.2L655.46 179.488L630.908 179.632C630.236 179.632 629.492 179.008 628.676 177.76C627.668 176.224 627.068 175.36 626.876 175.168C624.668 173.296 621.476 172.36 617.3 172.36C610.772 172.36 606.308 174.784 603.908 179.632C603.284 181.216 602.828 182.416 602.54 183.232C602.54 187.84 602.876 191.08 603.548 192.952C605.756 199.096 610.292 202.168 617.156 202.168C620.18 202.168 622.772 201.448 624.932 200.008C626.324 199.096 628.316 197.248 630.908 194.464L631.772 194.032H655.172L656.108 194.464C656.156 195.376 656.18 195.808 656.18 195.76C656.18 203.68 651.452 209.536 641.996 213.328C635.132 216.112 627.02 217.504 617.66 217.504C591.164 217.504 577.556 207.76 576.836 188.272ZM658.421 215.704C657.989 215.128 657.701 214.672 657.557 214.336V185.464C657.557 182.584 657.629 178.264 657.773 172.504C657.917 166.696 657.989 162.352 657.989 159.472C658.229 158.848 658.541 158.392 658.925 158.104H663.173C662.213 158.104 667.829 158.272 680.021 158.608C680.405 158.848 680.717 159.28 680.957 159.904V187.624C680.957 193.384 680.813 202.6 680.525 215.272L679.589 216.136C679.253 216.136 678.725 216.136 678.005 216.136C677.285 216.184 676.757 216.208 676.421 216.208H671.813C666.821 216.208 662.357 216.04 658.421 215.704ZM683.241 216.136C682.809 215.704 682.521 215.392 682.377 215.2V214.984C682.377 214.312 682.665 213.352 683.241 212.104L707.145 159.904C707.577 159.424 708.009 158.968 708.441 158.536C713.337 158.2 718.737 158.032 724.641 158.032L733.641 158.104C734.745 158.104 735.513 158.536 735.945 159.4C737.289 161.992 738.969 165.736 740.985 170.632C743.097 175.96 744.705 179.728 745.809 181.936L759.777 215.2C759.777 216.16 759.033 216.64 757.545 216.64C757.449 216.64 752.217 216.496 741.849 216.208C739.689 216.208 738.009 216.184 736.809 216.136C736.041 215.992 735.297 215.344 734.577 214.192C733.521 212.56 732.969 211.696 732.921 211.6C732.345 210.976 729.825 210.664 725.361 210.664C723.489 210.664 720.657 210.76 716.865 210.952C713.121 211.096 710.313 211.168 708.441 211.168C707.577 211.648 706.689 213.16 705.777 215.704C705.009 216.376 703.713 216.712 701.889 216.712C699.921 216.712 693.705 216.52 683.241 216.136ZM714.705 194.392C714.705 195.16 714.945 195.544 715.425 195.544C715.569 195.544 715.785 195.52 716.073 195.472C716.409 195.424 716.673 195.4 716.865 195.4C722.289 195.4 723.873 195.424 721.617 195.472C724.257 195.424 725.577 195.04 725.577 194.32C725.577 193.408 724.785 191.104 723.201 187.408C721.617 183.712 720.537 181.864 719.961 181.864C719.193 181.864 718.089 183.736 716.649 187.48C715.353 190.984 714.705 193.288 714.705 194.392ZM761.198 159.472L762.062 158.536C767.246 158.248 770.222 158.104 770.99 158.104H811.382C814.166 158.104 819.47 158.248 827.294 158.536L828.23 159.472V173.152H807.998C807.614 173.344 807.158 173.728 806.63 174.304C806.63 173.536 806.486 178.936 806.198 190.504C805.958 201.496 805.79 209.752 805.694 215.272L805.262 216.136H784.598C783.686 216.136 783.23 215.68 783.23 214.768V176.104C783.23 174.328 782.774 173.44 781.862 173.44C780.806 173.44 778.862 173.464 776.03 173.512C773.198 173.56 771.062 173.584 769.622 173.584C767.27 173.584 765.35 173.512 763.862 173.368C762.086 173.272 761.198 172.84 761.198 172.072V159.472ZM830.546 215.704C830.114 215.128 829.826 214.672 829.682 214.336V185.464C829.682 182.584 829.754 178.264 829.898 172.504C830.042 166.696 830.114 162.352 830.114 159.472C830.354 158.848 830.666 158.392 831.05 158.104H835.298C834.338 158.104 839.954 158.272 852.146 158.608C852.53 158.848 852.842 159.28 853.082 159.904V187.624C853.082 193.384 852.938 202.6 852.65 215.272L851.714 216.136C851.378 216.136 850.85 216.136 850.13 216.136C849.41 216.184 848.882 216.208 848.546 216.208H843.938C838.946 216.208 834.482 216.04 830.546 215.704ZM854.502 188.992C854.502 177.76 858.102 169.36 865.302 163.792C871.83 158.752 880.854 156.232 892.374 156.232C920.214 156.232 934.134 166.312 934.134 186.472C934.134 191.608 932.958 196.528 930.606 201.232C925.134 212.032 914.67 217.432 899.214 217.432C888.558 217.432 880.83 216.808 876.03 215.56C867.774 213.448 861.798 208.984 858.102 202.168C855.702 197.752 854.502 193.36 854.502 188.992ZM879.702 188.632C879.702 192.904 881.334 196.288 884.598 198.784C887.574 201.04 891.27 202.168 895.686 202.168C899.334 202.168 902.478 200.584 905.118 197.416C907.662 194.392 908.934 191.032 908.934 187.336C908.934 184.36 908.358 181.624 907.206 179.128C905.862 176.2 903.942 174.256 901.446 173.296C901.206 173.248 900.318 173.008 898.782 172.576C897.726 172.288 896.91 171.952 896.334 171.568C896.094 171.568 895.686 171.544 895.11 171.496C894.582 171.496 894.174 171.496 893.886 171.496C889.326 171.496 885.75 173.272 883.158 176.824C880.854 179.992 879.702 183.928 879.702 188.632ZM936.941 215.704C936.029 215.032 935.573 214.432 935.573 213.904V186.328L935.645 184.096C935.741 174.496 935.813 169 935.861 167.608C935.909 164.296 935.957 161.56 936.005 159.4C936.293 158.2 937.349 157.6 939.173 157.6C941.621 157.6 945.293 157.696 950.189 157.888C955.085 158.032 958.757 158.104 961.205 158.104C961.973 158.632 965.309 162.304 971.213 169.12C976.973 175.696 980.069 179.344 980.501 180.064C980.933 180.736 981.245 181.216 981.437 181.504C983.309 183.664 984.293 184.792 984.389 184.888L984.677 185.032C985.253 184.888 985.757 184.816 986.189 184.816V159.904C986.189 159.424 986.717 158.656 987.773 157.6H996.989C998.141 157.6 999.893 157.696 1002.24 157.888C1004.64 158.032 1006.42 158.104 1007.57 158.104C1008.48 158.104 1008.94 158.824 1008.94 160.264V188.2C1008.94 190.504 1008.89 193.48 1008.8 197.128C1008.7 202.072 1008.65 205.048 1008.65 206.056C1008.6 209.464 1008.56 212.08 1008.51 213.904C1008.32 215.44 1007.14 216.208 1004.98 216.208C997.925 216.208 991.133 216.04 984.605 215.704C983.453 215.176 981.965 213.808 980.141 211.6L959.909 187.336C959.717 187.288 959.573 187.264 959.477 187.264C958.709 187.264 958.325 187.432 958.325 187.768V214.336C957.701 215.104 957.317 215.56 957.173 215.704C949.541 215.992 945.005 216.136 943.565 216.136C941.453 216.136 939.245 215.992 936.941 215.704Z" fill="#D3312A"/>
</g>
<g filter="url(#filter2_d_247_11)">
<path d="M1021.73 239.407L1053.31 289.267L1022.09 297.098L1004.18 247.717L1021.73 239.407Z" fill="#D3312A"/>
</g>
<g filter="url(#filter3_d_247_11)">
<path d="M1043.1 204.594L1110.26 206.949L1104.96 251.207L1038.88 226.647L1043.1 204.594Z" fill="#D3312A"/>
</g>
<g filter="url(#filter4_d_247_11)">
<path d="M93.4404 63.1063L63.0749 16.5482L92.3752 8.78094L109.861 55.0595L93.4404 63.1063Z" fill="#D3312A"/>
</g>
<g filter="url(#filter5_d_247_11)">
<path d="M73.7573 96.159L10.4818 94.7852L14.9168 53.0392L77.4512 75.3379L73.7573 96.159Z" fill="#D3312A"/>
</g>
<g filter="url(#filter6_d_247_11)">
<path d="M96.657 142.136L95.721 141.2C95.721 140.432 95.721 139.304 95.721 137.816C95.673 136.328 95.649 135.2 95.649 134.432V124.136C95.649 113.864 95.745 105.344 95.937 98.576C96.129 91.808 96.369 87.272 96.657 84.968C96.897 84.68 97.113 84.488 97.305 84.392C98.361 83.864 102.825 83.6 110.697 83.6H120.849C125.937 83.6 131.889 83.648 138.705 83.744C152.049 83.936 159.321 84.056 160.521 84.104C161.529 84.152 162.129 84.44 162.321 84.968C162.657 85.88 162.825 87.56 162.825 90.008C162.825 93.32 162.657 95.984 162.321 98L161.889 98.504C155.361 98.84 149.121 99.008 143.169 99.008H128.049C122.865 99.008 120.201 99.08 120.057 99.224C119.721 99.608 119.553 100.328 119.553 101.384C119.553 103.592 119.841 104.816 120.417 105.056C121.377 105.488 122.745 105.704 124.521 105.704C137.961 105.704 147.873 105.848 154.257 106.136L155.121 107V108.296C155.121 113.24 154.977 116.864 154.689 119.168C154.593 120.08 154.137 120.536 153.321 120.536H120.921C119.721 120.536 119.121 121.832 119.121 124.424C119.121 126.2 120.609 127.136 123.585 127.232C124.257 127.28 130.281 127.304 141.657 127.304C144.201 127.304 148.017 127.376 153.105 127.52C158.193 127.664 162.009 127.736 164.553 127.736C165.177 128.072 165.489 128.672 165.489 129.536V139.904C165.489 140.24 165.321 140.696 164.985 141.272C164.697 141.848 164.409 142.136 164.121 142.136H96.657ZM167.812 142.136C167.38 141.704 167.092 141.392 166.948 141.2V140.984C166.948 140.312 167.236 139.352 167.812 138.104L191.716 85.904C192.148 85.424 192.58 84.968 193.012 84.536C197.908 84.2 203.308 84.032 209.212 84.032L218.212 84.104C219.316 84.104 220.084 84.536 220.516 85.4C221.86 87.992 223.54 91.736 225.556 96.632C227.668 101.96 229.276 105.728 230.38 107.936L244.348 141.2C244.348 142.16 243.604 142.64 242.116 142.64C242.02 142.64 236.788 142.496 226.42 142.208C224.26 142.208 222.58 142.184 221.38 142.136C220.612 141.992 219.868 141.344 219.148 140.192C218.092 138.56 217.54 137.696 217.492 137.6C216.916 136.976 214.396 136.664 209.932 136.664C208.06 136.664 205.228 136.76 201.436 136.952C197.692 137.096 194.884 137.168 193.012 137.168C192.148 137.648 191.26 139.16 190.348 141.704C189.58 142.376 188.284 142.712 186.46 142.712C184.492 142.712 178.276 142.52 167.812 142.136ZM199.276 120.392C199.276 121.16 199.516 121.544 199.996 121.544C200.14 121.544 200.356 121.52 200.644 121.472C200.98 121.424 201.244 121.4 201.436 121.4C206.86 121.4 208.444 121.424 206.188 121.472C208.828 121.424 210.148 121.04 210.148 120.32C210.148 119.408 209.356 117.104 207.772 113.408C206.188 109.712 205.108 107.864 204.532 107.864C203.764 107.864 202.66 109.736 201.22 113.48C199.924 116.984 199.276 119.288 199.276 120.392ZM245.696 126.656C245.696 125.936 246.176 125.384 247.136 125H275.936C276.512 125 277.208 125.36 278.024 126.08C279.032 126.992 279.68 127.52 279.968 127.664C281.36 128.288 283.712 128.6 287.024 128.6C288.464 128.6 289.76 128.36 290.912 127.88C292.4 127.208 293.144 126.248 293.144 125C293.144 123.224 291.464 122.168 288.104 121.832C283.592 121.448 279.08 121.088 274.568 120.752C268.472 120.128 263.48 119.24 259.592 118.088C254.408 116.552 250.712 114.392 248.504 111.608C247.064 109.88 246.296 108.344 246.2 107C246.152 106.28 246.128 105.248 246.128 103.904C246.128 100.256 246.752 97.304 248 95.048C252.512 86.792 264.536 82.664 284.072 82.664C300.584 82.664 311.384 86.528 316.472 94.256C317.96 96.608 318.704 98.384 318.704 99.584C318.704 99.872 318.248 100.232 317.336 100.664H308.408C307.976 100.664 303.176 100.544 294.008 100.304C292.424 100.256 291.2 100.232 290.336 100.232C289.52 100.04 288.128 99.32 286.16 98.072C284.624 97.064 282.632 96.56 280.184 96.56C275.48 96.56 273.128 97.64 273.128 99.8C273.128 101.288 274.664 102.32 277.736 102.896C285.512 104 291.464 104.744 295.592 105.128C302.648 105.944 307.424 106.856 309.92 107.864C316.976 110.744 320.504 115.832 320.504 123.128C320.504 130.088 317.552 135.152 311.648 138.32C307.856 140.336 301.808 141.824 293.504 142.784C289.328 143.264 285.632 143.504 282.416 143.504C273.632 143.504 267.176 142.976 263.048 141.92C256.184 140.24 251.024 136.688 247.568 131.264C246.32 129.344 245.696 127.808 245.696 126.656ZM321.916 85.472L322.78 84.536C327.964 84.248 330.94 84.104 331.708 84.104H372.1C374.884 84.104 380.188 84.248 388.012 84.536L388.948 85.472V99.152H368.716C368.332 99.344 367.876 99.728 367.348 100.304C367.348 99.536 367.204 104.936 366.916 116.504C366.676 127.496 366.508 135.752 366.412 141.272L365.98 142.136H345.316C344.404 142.136 343.948 141.68 343.948 140.768V102.104C343.948 100.328 343.492 99.44 342.58 99.44C341.524 99.44 339.58 99.464 336.748 99.512C333.916 99.56 331.78 99.584 330.34 99.584C327.988 99.584 326.068 99.512 324.58 99.368C322.804 99.272 321.916 98.84 321.916 98.072V85.472ZM391.337 142.136L390.401 141.2C390.401 140.432 390.401 139.304 390.401 137.816C390.353 136.328 390.329 135.2 390.329 134.432V124.136C390.329 113.864 390.425 105.344 390.617 98.576C390.809 91.808 391.049 87.272 391.337 84.968C391.577 84.68 391.793 84.488 391.985 84.392C393.041 83.864 397.505 83.6 405.377 83.6H415.529C420.617 83.6 426.569 83.648 433.385 83.744C446.729 83.936 454.001 84.056 455.201 84.104C456.209 84.152 456.809 84.44 457.001 84.968C457.337 85.88 457.505 87.56 457.505 90.008C457.505 93.32 457.337 95.984 457.001 98L456.569 98.504C450.041 98.84 443.801 99.008 437.849 99.008H422.729C417.545 99.008 414.881 99.08 414.737 99.224C414.401 99.608 414.233 100.328 414.233 101.384C414.233 103.592 414.521 104.816 415.097 105.056C416.057 105.488 417.425 105.704 419.201 105.704C432.641 105.704 442.553 105.848 448.937 106.136L449.801 107V108.296C449.801 113.24 449.657 116.864 449.369 119.168C449.273 120.08 448.817 120.536 448.001 120.536H415.601C414.401 120.536 413.801 121.832 413.801 124.424C413.801 126.2 415.289 127.136 418.265 127.232C418.937 127.28 424.961 127.304 436.337 127.304C438.881 127.304 442.697 127.376 447.785 127.52C452.873 127.664 456.689 127.736 459.233 127.736C459.857 128.072 460.169 128.672 460.169 129.536V139.904C460.169 140.24 460.001 140.696 459.665 141.272C459.377 141.848 459.089 142.136 458.801 142.136H391.337ZM463.427 142.136C462.707 142.136 462.251 141.56 462.059 140.408C462.059 139.496 462.035 138.608 461.987 137.744L461.843 133.784C461.699 129.944 461.627 127.904 461.627 127.664V118.952C461.627 114.68 461.675 109.568 461.771 103.616L461.987 90.512C462.035 88.064 462.059 86.216 462.059 84.968C462.107 84.632 462.491 84.392 463.211 84.248C466.475 84.008 468.923 83.888 470.555 83.888C471.323 83.888 473.771 83.84 477.899 83.744C480.923 83.648 483.395 83.6 485.315 83.6H515.627C521.483 83.6 526.355 85.352 530.243 88.856C534.323 92.504 536.363 97.208 536.363 102.968C536.363 107.24 535.379 110.432 533.411 112.544C532.499 113.552 529.715 115.472 525.059 118.304C524.435 118.688 524.003 119.12 523.763 119.6C523.907 120.128 524.195 120.728 524.627 121.4L535.859 139.4V141.704H511.595C510.011 140.12 508.091 137.6 505.835 134.144C504.155 131.408 502.475 128.672 500.795 125.936C500.603 125.648 500.171 124.832 499.499 123.488C499.019 122.48 498.539 121.736 498.059 121.256C497.627 120.776 497.195 120.536 496.763 120.536H486.395C485.963 120.92 485.651 121.208 485.459 121.4C485.171 121.832 484.955 122.144 484.811 122.336V141.2L484.163 141.704C479.219 141.992 475.979 142.136 474.443 142.136H463.427ZM485.459 104.768C486.371 105.392 487.571 105.704 489.059 105.704C491.075 105.704 494.075 105.632 498.059 105.488C502.043 105.296 505.043 105.2 507.059 105.2C508.067 105.2 508.931 104.912 509.651 104.336C510.371 103.76 510.731 102.968 510.731 101.96C510.731 99.656 509.219 98.504 506.195 98.504H486.395C485.483 98.504 485.027 99.608 485.027 101.816C485.027 102.632 485.171 103.616 485.459 104.768ZM539.144 141.704C538.232 141.032 537.776 140.432 537.776 139.904V112.328L537.848 110.096C537.944 100.496 538.016 95 538.064 93.608C538.112 90.296 538.16 87.56 538.208 85.4C538.496 84.2 539.552 83.6 541.376 83.6C543.824 83.6 547.496 83.696 552.392 83.888C557.288 84.032 560.96 84.104 563.408 84.104C564.176 84.632 567.512 88.304 573.416 95.12C579.176 101.696 582.272 105.344 582.704 106.064C583.136 106.736 583.448 107.216 583.64 107.504C585.512 109.664 586.496 110.792 586.592 110.888L586.88 111.032C587.456 110.888 587.96 110.816 588.392 110.816V85.904C588.392 85.424 588.92 84.656 589.976 83.6H599.192C600.344 83.6 602.096 83.696 604.448 83.888C606.848 84.032 608.624 84.104 609.776 84.104C610.688 84.104 611.144 84.824 611.144 86.264V114.2C611.144 116.504 611.096 119.48 611 123.128C610.904 128.072 610.856 131.048 610.856 132.056C610.808 135.464 610.76 138.08 610.712 139.904C610.52 141.44 609.344 142.208 607.184 142.208C600.128 142.208 593.336 142.04 586.808 141.704C585.656 141.176 584.168 139.808 582.344 137.6L562.112 113.336C561.92 113.288 561.776 113.264 561.68 113.264C560.912 113.264 560.528 113.432 560.528 113.768V140.336C559.904 141.104 559.52 141.56 559.376 141.704C551.744 141.992 547.208 142.136 545.768 142.136C543.656 142.136 541.448 141.992 539.144 141.704Z" fill="#D3312A"/>
</g>
<defs>
<filter id="filter0_d_247_11" x="651.649" y="82.6641" width="593.503" height="72.1997" filterUnits="userSpaceOnUse" color-interpolation-filters="sRGB">
<feFlood flood-opacity="0" result="BackgroundImageFix"/>
<feColorMatrix in="SourceAlpha" type="matrix" values="0 0 0 0 0 0 0 0 0 0 0 0 0 0 0 0 0 0 127 0" result="hardAlpha"/>
<feOffset dx="5" dy="7"/>
<feGaussianBlur stdDeviation="2"/>
<feComposite in2="hardAlpha" operator="out"/>
<feColorMatrix type="matrix" values="0 0 0 0 0 0 0 0 0 0 0 0 0 0 0 0 0 0 0.25 0"/>
<feBlend mode="normal" in2="BackgroundImageFix" result="effect1_dropShadow_247_11"/>
<feBlend mode="normal" in="SourceGraphic" in2="effect1_dropShadow_247_11" result="shape"/>
</filter>
<filter id="filter1_d_247_11" x="264.721" y="156.232" width="753.22" height="72.272" filterUnits="userSpaceOnUse" color-interpolation-filters="sRGB">
<feFlood flood-opacity="0" result="BackgroundImageFix"/>
<feColorMatrix in="SourceAlpha" type="matrix" values="0 0 0 0 0 0 0 0 0 0 0 0 0 0 0 0 0 0 127 0" result="hardAlpha"/>
<feOffset dx="5" dy="7"/>
<feGaussianBlur stdDeviation="2"/>
<feComposite in2="hardAlpha" operator="out"/>
<feColorMatrix type="matrix" values="0 0 0 0 0 0 0 0 0 0 0 0 0 0 0 0 0 0 0.25 0"/>
<feBlend mode="normal" in2="BackgroundImageFix" result="effect1_dropShadow_247_11"/>
<feBlend mode="normal" in="SourceGraphic" in2="effect1_dropShadow_247_11" result="shape"/>
</filter>
<filter id="filter2_d_247_11" x="994.185" y="234.407" width="59.126" height="65.6914" filterUnits="userSpaceOnUse" color-interpolation-filters="sRGB">
<feFlood flood-opacity="0" result="BackgroundImageFix"/>
<feColorMatrix in="SourceAlpha" type="matrix" values="0 0 0 0 0 0 0 0 0 0 0 0 0 0 0 0 0 0 127 0" result="hardAlpha"/>
<feOffset dx="-6" dy="-1"/>
<feGaussianBlur stdDeviation="2"/>
<feComposite in2="hardAlpha" operator="out"/>
<feColorMatrix type="matrix" values="0 0 0 0 0 0 0 0 0 0 0 0 0 0 0 0 0 0 0.25 0"/>
<feBlend mode="normal" in2="BackgroundImageFix" result="effect1_dropShadow_247_11"/>
<feBlend mode="normal" in="SourceGraphic" in2="effect1_dropShadow_247_11" result="shape"/>
</filter>
<filter id="filter3_d_247_11" x="1028.88" y="199.594" width="81.376" height="54.6138" filterUnits="userSpaceOnUse" color-interpolation-filters="sRGB">
<feFlood flood-opacity="0" result="BackgroundImageFix"/>
<feColorMatrix in="SourceAlpha" type="matrix" values="0 0 0 0 0 0 0 0 0 0 0 0 0 0 0 0 0 0 127 0" result="hardAlpha"/>
<feOffset dx="-6" dy="-1"/>
<feGaussianBlur stdDeviation="2"/>
<feComposite in2="hardAlpha" operator="out"/>
<feColorMatrix type="matrix" values="0 0 0 0 0 0 0 0 0 0 0 0 0 0 0 0 0 0 0.25 0"/>
<feBlend mode="normal" in2="BackgroundImageFix" result="effect1_dropShadow_247_11"/>
<feBlend mode="normal" in="SourceGraphic" in2="effect1_dropShadow_247_11" result="shape"/>
</filter>
<filter id="filter4_d_247_11" x="53.0752" y="3.78076" width="56.7861" height="62.3257" filterUnits="userSpaceOnUse" color-interpolation-filters="sRGB">
<feFlood flood-opacity="0" result="BackgroundImageFix"/>
<feColorMatrix in="SourceAlpha" type="matrix" values="0 0 0 0 0 0 0 0 0 0 0 0 0 0 0 0 0 0 127 0" result="hardAlpha"/>
<feOffset dx="-6" dy="-1"/>
<feGaussianBlur stdDeviation="2"/>
<feComposite in2="hardAlpha" operator="out"/>
<feColorMatrix type="matrix" values="0 0 0 0 0 0 0 0 0 0 0 0 0 0 0 0 0 0 0.25 0"/>
<feBlend mode="normal" in2="BackgroundImageFix" result="effect1_dropShadow_247_11"/>
<feBlend mode="normal" in="SourceGraphic" in2="effect1_dropShadow_247_11" result="shape"/>
</filter>
<filter id="filter5_d_247_11" x="0.481445" y="48.0391" width="76.9697" height="51.1201" filterUnits="userSpaceOnUse" color-interpolation-filters="sRGB">
<feFlood flood-opacity="0" result="BackgroundImageFix"/>
<feColorMatrix in="SourceAlpha" type="matrix" values="0 0 0 0 0 0 0 0 0 0 0 0 0 0 0 0 0 0 127 0" result="hardAlpha"/>
<feOffset dx="-6" dy="-1"/>
<feGaussianBlur stdDeviation="2"/>
<feComposite in2="hardAlpha" operator="out"/>
<feColorMatrix type="matrix" values="0 0 0 0 0 0 0 0 0 0 0 0 0 0 0 0 0 0 0.25 0"/>
<feBlend mode="normal" in2="BackgroundImageFix" result="effect1_dropShadow_247_11"/>
<feBlend mode="normal" in="SourceGraphic" in2="effect1_dropShadow_247_11" result="shape"/>
</filter>
<filter id="filter6_d_247_11" x="95.6494" y="82.6641" width="524.494" height="71.8398" filterUnits="userSpaceOnUse" color-interpolation-filters="sRGB">
<feFlood flood-opacity="0" result="BackgroundImageFix"/>
<feColorMatrix in="SourceAlpha" type="matrix" values="0 0 0 0 0 0 0 0 0 0 0 0 0 0 0 0 0 0 127 0" result="hardAlpha"/>
<feOffset dx="5" dy="7"/>
<feGaussianBlur stdDeviation="2"/>
<feComposite in2="hardAlpha" operator="out"/>
<feColorMatrix type="matrix" values="0 0 0 0 0 0 0 0 0 0 0 0 0 0 0 0 0 0 0.25 0"/>
<feBlend mode="normal" in2="BackgroundImageFix" result="effect1_dropShadow_247_11"/>
<feBlend mode="normal" in="SourceGraphic" in2="effect1_dropShadow_247_11" result="shape"/>
</filter>
</defs>
</svg>
