<svg width="50" height="232" viewBox="0 0 50 232" fill="none" xmlns="http://www.w3.org/2000/svg">
<path d="M49.0778 2.3162C49.5285 1.99712 49.6353 1.37301 49.3162 0.922237C48.9971 0.47146 48.373 0.364706 47.9222 0.683795L49.0778 2.3162ZM48.4969 231.5C49.0491 231.501 49.4983 231.055 49.5 230.503L49.5284 221.503C49.5301 220.951 49.0838 220.501 48.5315 220.5C47.9792 220.498 47.5301 220.944 47.5284 221.497L47.5032 229.497L39.5032 229.471C38.9509 229.47 38.5018 229.916 38.5001 230.468C38.4983 231.02 38.9446 231.47 39.4969 231.471L48.4969 231.5ZM48.5 1.5L47.9222 0.683795C25.36 16.6548 5.52289 54.3452 1.19241 97.901C-3.14424 141.519 8.04451 191.207 47.7907 231.205L48.5 230.5L49.2093 229.795C9.9555 190.293 -1.10576 141.231 3.18259 98.0989C7.47711 54.9048 27.14 17.8452 49.0778 2.3162L48.5 1.5Z" fill="#161514"/>
</svg>
