<svg width="59" height="91" viewBox="0 0 59 91" fill="none" xmlns="http://www.w3.org/2000/svg">
<path d="M58.9844 1.17373C59.0807 0.629903 58.7179 0.110978 58.1741 0.014678C57.6303 -0.0816233 57.1113 0.281166 57.015 0.82499L58.9844 1.17373ZM0.0310788 86.8062C-0.106569 87.3411 0.215434 87.8863 0.750291 88.0239L9.46629 90.267C10.0011 90.4046 10.5463 90.0826 10.684 89.5478C10.8216 89.0129 10.4996 88.4677 9.96475 88.3301L2.2172 86.3362L4.21105 78.5887C4.34869 78.0538 4.02669 77.5087 3.49183 77.371C2.95698 77.2334 2.41181 77.5554 2.27416 78.0902L0.0310788 86.8062ZM57.9997 0.999358L57.015 0.82499C52.7512 24.9034 50.3997 39.1799 43.2686 50.9899C36.1595 62.7636 24.2342 72.1706 0.49096 86.1944L0.999521 87.0555L1.50808 87.9165C25.265 73.8846 37.5898 64.264 44.9807 52.0237C52.3497 39.8197 54.7482 25.0961 58.9844 1.17373L57.9997 0.999358Z" fill="#161514"/>
</svg>
