<svg width="955" height="459" viewBox="0 0 955 459" fill="none" xmlns="http://www.w3.org/2000/svg">
<g filter="url(#filter0_d_9_11)">
<path d="M184.648 237.656C184.648 236.936 185.128 236.384 186.088 236H214.888C215.464 236 216.16 236.36 216.976 237.08C217.984 237.992 218.632 238.52 218.92 238.664C220.312 239.288 222.664 239.6 225.976 239.6C227.416 239.6 228.712 239.36 229.864 238.88C231.352 238.208 232.096 237.248 232.096 236C232.096 234.224 230.416 233.168 227.056 232.832C222.544 232.448 218.032 232.088 213.52 231.752C207.424 231.128 202.432 230.24 198.544 229.088C193.36 227.552 189.664 225.392 187.456 222.608C186.016 220.88 185.248 219.344 185.152 218C185.104 217.28 185.08 216.248 185.08 214.904C185.08 211.256 185.704 208.304 186.952 206.048C191.464 197.792 203.488 193.664 223.024 193.664C239.536 193.664 250.336 197.528 255.424 205.256C256.912 207.608 257.656 209.384 257.656 210.584C257.656 210.872 257.2 211.232 256.288 211.664H247.36C246.928 211.664 242.128 211.544 232.96 211.304C231.376 211.256 230.152 211.232 229.288 211.232C228.472 211.04 227.08 210.32 225.112 209.072C223.576 208.064 221.584 207.56 219.136 207.56C214.432 207.56 212.08 208.64 212.08 210.8C212.08 212.288 213.616 213.32 216.688 213.896C224.464 215 230.416 215.744 234.544 216.128C241.6 216.944 246.376 217.856 248.872 218.864C255.928 221.744 259.456 226.832 259.456 234.128C259.456 241.088 256.504 246.152 250.6 249.32C246.808 251.336 240.76 252.824 232.456 253.784C228.28 254.264 224.584 254.504 221.368 254.504C212.584 254.504 206.128 253.976 202 252.92C195.136 251.24 189.976 247.688 186.52 242.264C185.272 240.344 184.648 238.808 184.648 237.656ZM260.868 196.472L261.732 195.536C266.916 195.248 269.892 195.104 270.66 195.104H311.052C313.836 195.104 319.14 195.248 326.964 195.536L327.9 196.472V210.152H307.668C307.284 210.344 306.828 210.728 306.3 211.304C306.3 210.536 306.156 215.936 305.868 227.504C305.628 238.496 305.46 246.752 305.364 252.272L304.932 253.136H284.268C283.356 253.136 282.9 252.68 282.9 251.768V213.104C282.9 211.328 282.444 210.44 281.532 210.44C280.476 210.44 278.532 210.464 275.7 210.512C272.868 210.56 270.732 210.584 269.292 210.584C266.94 210.584 265.02 210.512 263.532 210.368C261.756 210.272 260.868 209.84 260.868 209.072V196.472ZM365.065 254.864C362.953 254.864 358.393 254.408 351.385 253.496C343.801 252.488 338.233 249.896 334.681 245.72C331.129 241.496 329.353 235.544 329.353 227.864C329.353 224.36 329.425 219.104 329.569 212.096C329.713 205.088 329.785 199.832 329.785 196.328C330.649 195.464 331.249 195.032 331.585 195.032H350.953C352.153 195.032 352.753 195.632 352.753 196.832V230.096C352.753 233.216 354.073 235.712 356.713 237.584C359.065 239.216 361.873 240.032 365.137 240.032C369.073 240.032 372.073 238.832 374.137 236.432C375.097 235.28 375.817 233.888 376.297 232.256C376.921 230.24 377.257 226.976 377.305 222.464C377.305 219.056 377.305 215.624 377.305 212.168L377.521 196.328L378.385 195.464C383.233 195.128 386.929 194.96 389.473 194.96C392.545 194.96 395.905 195.128 399.553 195.464C400.177 196.616 400.489 199.904 400.489 205.328V227.864C399.961 228.44 399.625 229.856 399.481 232.112C399.289 235.04 399.169 236.624 399.121 236.864C396.385 248.864 385.033 254.864 365.065 254.864ZM402.347 223.4C402.059 223.112 401.915 222.68 401.915 222.104C401.915 221.48 402.059 221.024 402.347 220.736C402.587 218.192 402.731 214.136 402.779 208.568C402.779 203.288 402.947 199.232 403.283 196.4C403.715 195.632 404.459 195.2 405.515 195.104C408.443 194.96 410.651 194.888 412.139 194.888C412.907 194.888 415.499 194.84 419.915 194.744C423.083 194.648 425.675 194.6 427.691 194.6H446.123C448.571 194.6 451.091 194.768 453.683 195.104C454.499 195.68 455.747 196.112 457.427 196.4C459.347 196.688 460.643 197 461.315 197.336C472.739 202.76 478.451 210.32 478.451 220.016C478.451 222.896 478.139 227.48 477.515 233.768C477.227 234.248 476.435 236.024 475.139 239.096C474.179 241.256 473.171 242.936 472.115 244.136C468.659 247.976 464.267 250.472 458.939 251.624C456.443 252.2 451.331 252.608 443.603 252.848C437.987 253.04 433.067 253.136 428.843 253.136H404.147C402.947 252.512 402.347 252.056 402.347 251.768V223.4ZM425.747 235.568C425.747 237.2 427.163 238.016 429.995 238.016C434.699 238.016 438.731 237.8 442.091 237.368C446.459 236.84 449.555 235.184 451.379 232.4C452.915 230 453.683 226.472 453.683 221.816C453.683 219.032 452.483 216.368 450.083 213.824C447.731 211.232 445.187 209.936 442.451 209.936H427.547C426.971 209.936 426.611 210.2 426.467 210.728C425.987 212.36 425.747 215.84 425.747 221.168V235.568ZM480.828 253.136L479.892 252.2C479.892 251.432 479.892 250.304 479.892 248.816C479.844 247.328 479.82 246.2 479.82 245.432V235.136C479.82 224.864 479.916 216.344 480.108 209.576C480.3 202.808 480.54 198.272 480.828 195.968C481.068 195.68 481.284 195.488 481.476 195.392C482.532 194.864 486.996 194.6 494.868 194.6H505.02C510.108 194.6 516.06 194.648 522.876 194.744C536.22 194.936 543.492 195.056 544.692 195.104C545.7 195.152 546.3 195.44 546.492 195.968C546.828 196.88 546.996 198.56 546.996 201.008C546.996 204.32 546.828 206.984 546.492 209L546.06 209.504C539.532 209.84 533.292 210.008 527.34 210.008H512.22C507.036 210.008 504.372 210.08 504.228 210.224C503.892 210.608 503.724 211.328 503.724 212.384C503.724 214.592 504.012 215.816 504.588 216.056C505.548 216.488 506.916 216.704 508.692 216.704C522.132 216.704 532.044 216.848 538.428 217.136L539.292 218V219.296C539.292 224.24 539.148 227.864 538.86 230.168C538.764 231.08 538.308 231.536 537.492 231.536H505.092C503.892 231.536 503.292 232.832 503.292 235.424C503.292 237.2 504.78 238.136 507.756 238.232C508.428 238.28 514.452 238.304 525.828 238.304C528.372 238.304 532.188 238.376 537.276 238.52C542.364 238.664 546.18 238.736 548.724 238.736C549.348 239.072 549.66 239.672 549.66 240.536V250.904C549.66 251.24 549.492 251.696 549.156 252.272C548.868 252.848 548.58 253.136 548.292 253.136H480.828ZM552.486 252.704C551.574 252.032 551.118 251.432 551.118 250.904V223.328L551.19 221.096C551.286 211.496 551.358 206 551.406 204.608C551.454 201.296 551.502 198.56 551.55 196.4C551.838 195.2 552.894 194.6 554.718 194.6C557.166 194.6 560.838 194.696 565.734 194.888C570.63 195.032 574.302 195.104 576.75 195.104C577.518 195.632 580.854 199.304 586.758 206.12C592.518 212.696 595.614 216.344 596.046 217.064C596.478 217.736 596.79 218.216 596.982 218.504C598.854 220.664 599.838 221.792 599.934 221.888L600.222 222.032C600.798 221.888 601.302 221.816 601.734 221.816V196.904C601.734 196.424 602.262 195.656 603.318 194.6H612.534C613.686 194.6 615.438 194.696 617.79 194.888C620.19 195.032 621.966 195.104 623.118 195.104C624.03 195.104 624.486 195.824 624.486 197.264V225.2C624.486 227.504 624.438 230.48 624.342 234.128C624.246 239.072 624.198 242.048 624.198 243.056C624.15 246.464 624.102 249.08 624.054 250.904C623.862 252.44 622.686 253.208 620.526 253.208C613.47 253.208 606.678 253.04 600.15 252.704C598.998 252.176 597.51 250.808 595.686 248.6L575.454 224.336C575.262 224.288 575.118 224.264 575.022 224.264C574.254 224.264 573.87 224.432 573.87 224.768V251.336C573.246 252.104 572.862 252.56 572.718 252.704C565.086 252.992 560.55 253.136 559.11 253.136C556.998 253.136 554.79 252.992 552.486 252.704ZM625.931 196.472L626.795 195.536C631.979 195.248 634.955 195.104 635.723 195.104H676.115C678.899 195.104 684.203 195.248 692.027 195.536L692.963 196.472V210.152H672.731C672.347 210.344 671.891 210.728 671.363 211.304C671.363 210.536 671.219 215.936 670.931 227.504C670.691 238.496 670.523 246.752 670.427 252.272L669.995 253.136H649.331C648.419 253.136 647.963 252.68 647.963 251.768V213.104C647.963 211.328 647.507 210.44 646.595 210.44C645.539 210.44 643.595 210.464 640.763 210.512C637.931 210.56 635.795 210.584 634.355 210.584C632.003 210.584 630.083 210.512 628.595 210.368C626.819 210.272 625.931 209.84 625.931 209.072V196.472ZM694.343 237.656C694.343 236.936 694.823 236.384 695.783 236H724.583C725.159 236 725.855 236.36 726.671 237.08C727.679 237.992 728.327 238.52 728.615 238.664C730.007 239.288 732.359 239.6 735.671 239.6C737.111 239.6 738.407 239.36 739.559 238.88C741.047 238.208 741.791 237.248 741.791 236C741.791 234.224 740.111 233.168 736.751 232.832C732.239 232.448 727.727 232.088 723.215 231.752C717.119 231.128 712.127 230.24 708.239 229.088C703.055 227.552 699.359 225.392 697.151 222.608C695.711 220.88 694.943 219.344 694.847 218C694.799 217.28 694.775 216.248 694.775 214.904C694.775 211.256 695.399 208.304 696.647 206.048C701.159 197.792 713.183 193.664 732.719 193.664C749.231 193.664 760.031 197.528 765.119 205.256C766.607 207.608 767.351 209.384 767.351 210.584C767.351 210.872 766.895 211.232 765.983 211.664H757.055C756.623 211.664 751.823 211.544 742.655 211.304C741.071 211.256 739.847 211.232 738.983 211.232C738.167 211.04 736.775 210.32 734.807 209.072C733.271 208.064 731.279 207.56 728.831 207.56C724.127 207.56 721.775 208.64 721.775 210.8C721.775 212.288 723.311 213.32 726.383 213.896C734.159 215 740.111 215.744 744.239 216.128C751.295 216.944 756.071 217.856 758.567 218.864C765.623 221.744 769.151 226.832 769.151 234.128C769.151 241.088 766.199 246.152 760.295 249.32C756.503 251.336 750.455 252.824 742.151 253.784C737.975 254.264 734.279 254.504 731.063 254.504C722.279 254.504 715.823 253.976 711.695 252.92C704.831 251.24 699.671 247.688 696.215 242.264C694.967 240.344 694.343 238.808 694.343 237.656Z" fill="#D3312A"/>
</g>
<g filter="url(#filter1_d_9_11)">
<path d="M104.584 349.136C104.152 348.704 103.864 348.392 103.72 348.2V347.984C103.72 347.312 104.008 346.352 104.584 345.104L128.488 292.904C128.92 292.424 129.352 291.968 129.784 291.536C134.68 291.2 140.08 291.032 145.984 291.032L154.984 291.104C156.088 291.104 156.856 291.536 157.288 292.4C158.632 294.992 160.312 298.736 162.328 303.632C164.44 308.96 166.048 312.728 167.152 314.936L181.12 348.2C181.12 349.16 180.376 349.64 178.888 349.64C178.792 349.64 173.56 349.496 163.192 349.208C161.032 349.208 159.352 349.184 158.152 349.136C157.384 348.992 156.64 348.344 155.92 347.192C154.864 345.56 154.312 344.696 154.264 344.6C153.688 343.976 151.168 343.664 146.704 343.664C144.832 343.664 142 343.76 138.208 343.952C134.464 344.096 131.656 344.168 129.784 344.168C128.92 344.648 128.032 346.16 127.12 348.704C126.352 349.376 125.056 349.712 123.232 349.712C121.264 349.712 115.048 349.52 104.584 349.136ZM136.048 327.392C136.048 328.16 136.288 328.544 136.768 328.544C136.912 328.544 137.128 328.52 137.416 328.472C137.752 328.424 138.016 328.4 138.208 328.4C143.632 328.4 145.216 328.424 142.96 328.472C145.6 328.424 146.92 328.04 146.92 327.32C146.92 326.408 146.128 324.104 144.544 320.408C142.96 316.712 141.88 314.864 141.304 314.864C140.536 314.864 139.432 316.736 137.992 320.48C136.696 323.984 136.048 326.288 136.048 327.392ZM182.468 333.656C182.468 332.936 182.948 332.384 183.908 332H212.708C213.284 332 213.98 332.36 214.796 333.08C215.804 333.992 216.452 334.52 216.74 334.664C218.132 335.288 220.484 335.6 223.796 335.6C225.236 335.6 226.532 335.36 227.684 334.88C229.172 334.208 229.916 333.248 229.916 332C229.916 330.224 228.236 329.168 224.876 328.832C220.364 328.448 215.852 328.088 211.34 327.752C205.244 327.128 200.252 326.24 196.364 325.088C191.18 323.552 187.484 321.392 185.276 318.608C183.836 316.88 183.068 315.344 182.972 314C182.924 313.28 182.9 312.248 182.9 310.904C182.9 307.256 183.524 304.304 184.772 302.048C189.284 293.792 201.308 289.664 220.844 289.664C237.356 289.664 248.156 293.528 253.244 301.256C254.732 303.608 255.476 305.384 255.476 306.584C255.476 306.872 255.02 307.232 254.108 307.664H245.18C244.748 307.664 239.948 307.544 230.78 307.304C229.196 307.256 227.972 307.232 227.108 307.232C226.292 307.04 224.9 306.32 222.932 305.072C221.396 304.064 219.404 303.56 216.956 303.56C212.252 303.56 209.9 304.64 209.9 306.8C209.9 308.288 211.436 309.32 214.508 309.896C222.284 311 228.236 311.744 232.364 312.128C239.42 312.944 244.196 313.856 246.692 314.864C253.748 317.744 257.276 322.832 257.276 330.128C257.276 337.088 254.324 342.152 248.42 345.32C244.628 347.336 238.58 348.824 230.276 349.784C226.1 350.264 222.404 350.504 219.188 350.504C210.404 350.504 203.948 349.976 199.82 348.92C192.956 347.24 187.796 343.688 184.34 338.264C183.092 336.344 182.468 334.808 182.468 333.656ZM258.617 333.656C258.617 332.936 259.097 332.384 260.057 332H288.857C289.433 332 290.129 332.36 290.945 333.08C291.953 333.992 292.601 334.52 292.889 334.664C294.281 335.288 296.633 335.6 299.945 335.6C301.385 335.6 302.681 335.36 303.833 334.88C305.321 334.208 306.065 333.248 306.065 332C306.065 330.224 304.385 329.168 301.025 328.832C296.513 328.448 292.001 328.088 287.489 327.752C281.393 327.128 276.401 326.24 272.513 325.088C267.329 323.552 263.633 321.392 261.425 318.608C259.985 316.88 259.217 315.344 259.121 314C259.073 313.28 259.049 312.248 259.049 310.904C259.049 307.256 259.673 304.304 260.921 302.048C265.433 293.792 277.457 289.664 296.993 289.664C313.505 289.664 324.305 293.528 329.393 301.256C330.881 303.608 331.625 305.384 331.625 306.584C331.625 306.872 331.169 307.232 330.257 307.664H321.329C320.897 307.664 316.097 307.544 306.929 307.304C305.345 307.256 304.121 307.232 303.257 307.232C302.441 307.04 301.049 306.32 299.081 305.072C297.545 304.064 295.553 303.56 293.105 303.56C288.401 303.56 286.049 304.64 286.049 306.8C286.049 308.288 287.585 309.32 290.657 309.896C298.433 311 304.385 311.744 308.513 312.128C315.569 312.944 320.345 313.856 322.841 314.864C329.897 317.744 333.425 322.832 333.425 330.128C333.425 337.088 330.473 342.152 324.569 345.32C320.777 347.336 314.729 348.824 306.425 349.784C302.249 350.264 298.553 350.504 295.337 350.504C286.553 350.504 280.097 349.976 275.969 348.92C269.105 347.24 263.945 343.688 260.489 338.264C259.241 336.344 258.617 334.808 258.617 333.656ZM334.837 321.992C334.837 310.76 338.437 302.36 345.637 296.792C352.165 291.752 361.189 289.232 372.709 289.232C400.549 289.232 414.469 299.312 414.469 319.472C414.469 324.608 413.293 329.528 410.941 334.232C405.469 345.032 395.005 350.432 379.549 350.432C368.893 350.432 361.165 349.808 356.365 348.56C348.109 346.448 342.133 341.984 338.437 335.168C336.037 330.752 334.837 326.36 334.837 321.992ZM360.037 321.632C360.037 325.904 361.669 329.288 364.933 331.784C367.909 334.04 371.605 335.168 376.021 335.168C379.669 335.168 382.813 333.584 385.453 330.416C387.997 327.392 389.269 324.032 389.269 320.336C389.269 317.36 388.693 314.624 387.541 312.128C386.197 309.2 384.277 307.256 381.781 306.296C381.541 306.248 380.653 306.008 379.117 305.576C378.061 305.288 377.245 304.952 376.669 304.568C376.429 304.568 376.021 304.544 375.445 304.496C374.917 304.496 374.509 304.496 374.221 304.496C369.661 304.496 366.085 306.272 363.493 309.824C361.189 312.992 360.037 316.928 360.037 321.632ZM415.836 321.272L415.908 318.032C416.484 314.336 417.372 311.048 418.572 308.168C423.756 295.832 436.164 289.664 455.796 289.664C461.604 289.664 467.076 290.24 472.212 291.392C478.5 292.832 483.588 294.824 487.476 297.368C489.06 298.424 490.692 300.464 492.372 303.488C493.908 306.32 494.676 308.768 494.676 310.832V312.2L494.46 312.488L469.908 312.632C469.236 312.632 468.492 312.008 467.676 310.76C466.668 309.224 466.068 308.36 465.876 308.168C463.668 306.296 460.476 305.36 456.3 305.36C449.772 305.36 445.308 307.784 442.908 312.632C442.284 314.216 441.828 315.416 441.54 316.232C441.54 320.84 441.876 324.08 442.548 325.952C444.756 332.096 449.292 335.168 456.156 335.168C459.18 335.168 461.772 334.448 463.932 333.008C465.324 332.096 467.316 330.248 469.908 327.464L470.772 327.032H494.172L495.108 327.464C495.156 328.376 495.18 328.808 495.18 328.76C495.18 336.68 490.452 342.536 480.996 346.328C474.132 349.112 466.02 350.504 456.66 350.504C430.164 350.504 416.556 340.76 415.836 321.272ZM497.42 348.704C496.988 348.128 496.7 347.672 496.556 347.336V318.464C496.556 315.584 496.628 311.264 496.772 305.504C496.916 299.696 496.988 295.352 496.988 292.472C497.228 291.848 497.54 291.392 497.924 291.104H502.172C501.212 291.104 506.828 291.272 519.02 291.608C519.404 291.848 519.716 292.28 519.956 292.904V320.624C519.956 326.384 519.812 335.6 519.524 348.272L518.588 349.136C518.252 349.136 517.724 349.136 517.004 349.136C516.284 349.184 515.756 349.208 515.42 349.208H510.812C505.82 349.208 501.356 349.04 497.42 348.704ZM522.24 349.136C521.808 348.704 521.52 348.392 521.376 348.2V347.984C521.376 347.312 521.664 346.352 522.24 345.104L546.144 292.904C546.576 292.424 547.008 291.968 547.44 291.536C552.336 291.2 557.736 291.032 563.64 291.032L572.64 291.104C573.744 291.104 574.512 291.536 574.944 292.4C576.288 294.992 577.968 298.736 579.984 303.632C582.096 308.96 583.704 312.728 584.808 314.936L598.776 348.2C598.776 349.16 598.032 349.64 596.544 349.64C596.448 349.64 591.216 349.496 580.848 349.208C578.688 349.208 577.008 349.184 575.808 349.136C575.04 348.992 574.296 348.344 573.576 347.192C572.52 345.56 571.968 344.696 571.92 344.6C571.344 343.976 568.824 343.664 564.36 343.664C562.488 343.664 559.656 343.76 555.864 343.952C552.12 344.096 549.312 344.168 547.44 344.168C546.576 344.648 545.688 346.16 544.776 348.704C544.008 349.376 542.712 349.712 540.888 349.712C538.92 349.712 532.704 349.52 522.24 349.136ZM553.704 327.392C553.704 328.16 553.944 328.544 554.424 328.544C554.568 328.544 554.784 328.52 555.072 328.472C555.408 328.424 555.672 328.4 555.864 328.4C561.288 328.4 562.872 328.424 560.616 328.472C563.256 328.424 564.576 328.04 564.576 327.32C564.576 326.408 563.784 324.104 562.2 320.408C560.616 316.712 559.536 314.864 558.96 314.864C558.192 314.864 557.088 316.736 555.648 320.48C554.352 323.984 553.704 326.288 553.704 327.392ZM600.197 292.472L601.061 291.536C606.245 291.248 609.221 291.104 609.989 291.104H650.381C653.165 291.104 658.469 291.248 666.293 291.536L667.229 292.472V306.152H646.997C646.613 306.344 646.157 306.728 645.629 307.304C645.629 306.536 645.485 311.936 645.197 323.504C644.957 334.496 644.789 342.752 644.693 348.272L644.261 349.136H623.597C622.685 349.136 622.229 348.68 622.229 347.768V309.104C622.229 307.328 621.773 306.44 620.861 306.44C619.805 306.44 617.861 306.464 615.029 306.512C612.197 306.56 610.061 306.584 608.621 306.584C606.269 306.584 604.349 306.512 602.861 306.368C601.085 306.272 600.197 305.84 600.197 305.072V292.472ZM669.545 348.704C669.113 348.128 668.825 347.672 668.681 347.336V318.464C668.681 315.584 668.753 311.264 668.897 305.504C669.041 299.696 669.113 295.352 669.113 292.472C669.353 291.848 669.665 291.392 670.049 291.104H674.297C673.337 291.104 678.953 291.272 691.145 291.608C691.529 291.848 691.841 292.28 692.081 292.904V320.624C692.081 326.384 691.937 335.6 691.649 348.272L690.713 349.136C690.377 349.136 689.849 349.136 689.129 349.136C688.409 349.184 687.881 349.208 687.545 349.208H682.937C677.945 349.208 673.481 349.04 669.545 348.704ZM693.501 321.992C693.501 310.76 697.101 302.36 704.301 296.792C710.829 291.752 719.853 289.232 731.373 289.232C759.213 289.232 773.133 299.312 773.133 319.472C773.133 324.608 771.957 329.528 769.605 334.232C764.133 345.032 753.669 350.432 738.213 350.432C727.557 350.432 719.829 349.808 715.029 348.56C706.773 346.448 700.797 341.984 697.101 335.168C694.701 330.752 693.501 326.36 693.501 321.992ZM718.701 321.632C718.701 325.904 720.333 329.288 723.597 331.784C726.573 334.04 730.269 335.168 734.685 335.168C738.333 335.168 741.477 333.584 744.117 330.416C746.661 327.392 747.933 324.032 747.933 320.336C747.933 317.36 747.357 314.624 746.205 312.128C744.861 309.2 742.941 307.256 740.445 306.296C740.205 306.248 739.317 306.008 737.781 305.576C736.725 305.288 735.909 304.952 735.333 304.568C735.093 304.568 734.685 304.544 734.109 304.496C733.581 304.496 733.173 304.496 732.885 304.496C728.325 304.496 724.749 306.272 722.157 309.824C719.853 312.992 718.701 316.928 718.701 321.632ZM775.94 348.704C775.028 348.032 774.572 347.432 774.572 346.904V319.328L774.644 317.096C774.74 307.496 774.812 302 774.86 300.608C774.908 297.296 774.956 294.56 775.004 292.4C775.292 291.2 776.348 290.6 778.172 290.6C780.62 290.6 784.292 290.696 789.188 290.888C794.084 291.032 797.756 291.104 800.204 291.104C800.972 291.632 804.308 295.304 810.212 302.12C815.972 308.696 819.068 312.344 819.5 313.064C819.932 313.736 820.244 314.216 820.436 314.504C822.308 316.664 823.292 317.792 823.388 317.888L823.676 318.032C824.252 317.888 824.756 317.816 825.188 317.816V292.904C825.188 292.424 825.716 291.656 826.772 290.6H835.988C837.14 290.6 838.892 290.696 841.244 290.888C843.644 291.032 845.42 291.104 846.572 291.104C847.484 291.104 847.94 291.824 847.94 293.264V321.2C847.94 323.504 847.892 326.48 847.796 330.128C847.7 335.072 847.652 338.048 847.652 339.056C847.604 342.464 847.556 345.08 847.508 346.904C847.316 348.44 846.14 349.208 843.98 349.208C836.924 349.208 830.132 349.04 823.604 348.704C822.452 348.176 820.964 346.808 819.14 344.6L798.908 320.336C798.716 320.288 798.572 320.264 798.476 320.264C797.708 320.264 797.324 320.432 797.324 320.768V347.336C796.7 348.104 796.316 348.56 796.172 348.704C788.54 348.992 784.004 349.136 782.564 349.136C780.452 349.136 778.244 348.992 775.94 348.704Z" fill="#D3312A"/>
</g>
<g filter="url(#filter2_d_9_11)">
<path d="M219.656 157.136L218.72 156.2C218.72 155.432 218.72 154.304 218.72 152.816C218.672 151.328 218.648 150.2 218.648 149.432V139.136C218.648 128.864 218.744 120.344 218.936 113.576C219.128 106.808 219.368 102.272 219.656 99.9684C219.896 99.6804 220.112 99.4884 220.304 99.3924C221.36 98.8644 225.824 98.6004 233.696 98.6004H243.848C248.936 98.6004 254.888 98.6484 261.704 98.7444C275.048 98.9364 282.32 99.0564 283.52 99.1044C284.528 99.1524 285.128 99.4404 285.32 99.9684C285.656 100.88 285.824 102.56 285.824 105.008C285.824 108.32 285.656 110.984 285.32 113L284.888 113.504C278.36 113.84 272.12 114.008 266.168 114.008H251.048C245.864 114.008 243.2 114.08 243.056 114.224C242.72 114.608 242.552 115.328 242.552 116.384C242.552 118.592 242.84 119.816 243.416 120.056C244.376 120.488 245.744 120.704 247.52 120.704C260.96 120.704 270.872 120.848 277.256 121.136L278.12 122V123.296C278.12 128.24 277.976 131.864 277.688 134.168C277.592 135.08 277.136 135.536 276.32 135.536H243.92C242.72 135.536 242.12 136.832 242.12 139.424C242.12 141.2 243.608 142.136 246.584 142.232C247.256 142.28 253.28 142.304 264.656 142.304C267.2 142.304 271.016 142.376 276.104 142.52C281.192 142.664 285.008 142.736 287.552 142.736C288.176 143.072 288.488 143.672 288.488 144.536V154.904C288.488 155.24 288.32 155.696 287.984 156.272C287.696 156.848 287.408 157.136 287.12 157.136H219.656ZM290.811 157.136C290.379 156.704 290.091 156.392 289.947 156.2V155.984C289.947 155.312 290.235 154.352 290.811 153.104L314.715 100.904C315.147 100.424 315.579 99.9684 316.011 99.5364C320.907 99.2004 326.307 99.0324 332.211 99.0324L341.211 99.1044C342.315 99.1044 343.083 99.5364 343.515 100.4C344.859 102.992 346.539 106.736 348.555 111.632C350.667 116.96 352.275 120.728 353.379 122.936L367.347 156.2C367.347 157.16 366.603 157.64 365.115 157.64C365.019 157.64 359.787 157.496 349.419 157.208C347.259 157.208 345.579 157.184 344.379 157.136C343.611 156.992 342.867 156.344 342.147 155.192C341.091 153.56 340.539 152.696 340.491 152.6C339.915 151.976 337.395 151.664 332.931 151.664C331.059 151.664 328.227 151.76 324.435 151.952C320.691 152.096 317.883 152.168 316.011 152.168C315.147 152.648 314.259 154.16 313.347 156.704C312.579 157.376 311.283 157.712 309.459 157.712C307.491 157.712 301.275 157.52 290.811 157.136ZM322.275 135.392C322.275 136.16 322.515 136.544 322.995 136.544C323.139 136.544 323.355 136.52 323.643 136.472C323.979 136.424 324.243 136.4 324.435 136.4C329.859 136.4 331.443 136.424 329.187 136.472C331.827 136.424 333.147 136.04 333.147 135.32C333.147 134.408 332.355 132.104 330.771 128.408C329.187 124.712 328.107 122.864 327.531 122.864C326.763 122.864 325.659 124.736 324.219 128.48C322.923 131.984 322.275 134.288 322.275 135.392ZM368.695 141.656C368.695 140.936 369.175 140.384 370.135 140H398.935C399.511 140 400.207 140.36 401.023 141.08C402.031 141.992 402.679 142.52 402.967 142.664C404.359 143.288 406.711 143.6 410.023 143.6C411.463 143.6 412.759 143.36 413.911 142.88C415.399 142.208 416.143 141.248 416.143 140C416.143 138.224 414.463 137.168 411.103 136.832C406.591 136.448 402.079 136.088 397.567 135.752C391.471 135.128 386.479 134.24 382.591 133.088C377.407 131.552 373.711 129.392 371.503 126.608C370.063 124.88 369.295 123.344 369.199 122C369.151 121.28 369.127 120.248 369.127 118.904C369.127 115.256 369.751 112.304 370.999 110.048C375.511 101.792 387.535 97.6644 407.071 97.6644C423.583 97.6644 434.383 101.528 439.471 109.256C440.959 111.608 441.703 113.384 441.703 114.584C441.703 114.872 441.247 115.232 440.335 115.664H431.407C430.975 115.664 426.175 115.544 417.007 115.304C415.423 115.256 414.199 115.232 413.335 115.232C412.519 115.04 411.127 114.32 409.159 113.072C407.623 112.064 405.631 111.56 403.183 111.56C398.479 111.56 396.127 112.64 396.127 114.8C396.127 116.288 397.663 117.32 400.735 117.896C408.511 119 414.463 119.744 418.591 120.128C425.647 120.944 430.423 121.856 432.919 122.864C439.975 125.744 443.503 130.832 443.503 138.128C443.503 145.088 440.551 150.152 434.647 153.32C430.855 155.336 424.807 156.824 416.503 157.784C412.327 158.264 408.631 158.504 405.415 158.504C396.631 158.504 390.175 157.976 386.047 156.92C379.183 155.24 374.023 151.688 370.567 146.264C369.319 144.344 368.695 142.808 368.695 141.656ZM444.915 100.472L445.779 99.5364C450.963 99.2484 453.939 99.1044 454.707 99.1044H495.099C497.883 99.1044 503.187 99.2484 511.011 99.5364L511.947 100.472V114.152H491.715C491.331 114.344 490.875 114.728 490.347 115.304C490.347 114.536 490.203 119.936 489.915 131.504C489.675 142.496 489.507 150.752 489.411 156.272L488.979 157.136H468.315C467.403 157.136 466.947 156.68 466.947 155.768V117.104C466.947 115.328 466.491 114.44 465.579 114.44C464.523 114.44 462.579 114.464 459.747 114.512C456.915 114.56 454.779 114.584 453.339 114.584C450.987 114.584 449.067 114.512 447.579 114.368C445.803 114.272 444.915 113.84 444.915 113.072V100.472ZM514.336 157.136L513.4 156.2C513.4 155.432 513.4 154.304 513.4 152.816C513.352 151.328 513.328 150.2 513.328 149.432V139.136C513.328 128.864 513.424 120.344 513.616 113.576C513.808 106.808 514.048 102.272 514.336 99.9684C514.576 99.6804 514.792 99.4884 514.984 99.3924C516.04 98.8644 520.504 98.6004 528.376 98.6004H538.528C543.616 98.6004 549.568 98.6484 556.384 98.7444C569.728 98.9364 577 99.0564 578.2 99.1044C579.208 99.1524 579.808 99.4404 580 99.9684C580.336 100.88 580.504 102.56 580.504 105.008C580.504 108.32 580.336 110.984 580 113L579.568 113.504C573.04 113.84 566.8 114.008 560.848 114.008H545.728C540.544 114.008 537.88 114.08 537.736 114.224C537.4 114.608 537.232 115.328 537.232 116.384C537.232 118.592 537.52 119.816 538.096 120.056C539.056 120.488 540.424 120.704 542.2 120.704C555.64 120.704 565.552 120.848 571.936 121.136L572.8 122V123.296C572.8 128.24 572.656 131.864 572.368 134.168C572.272 135.08 571.816 135.536 571 135.536H538.6C537.4 135.536 536.8 136.832 536.8 139.424C536.8 141.2 538.288 142.136 541.264 142.232C541.936 142.28 547.96 142.304 559.336 142.304C561.88 142.304 565.696 142.376 570.784 142.52C575.872 142.664 579.688 142.736 582.232 142.736C582.856 143.072 583.168 143.672 583.168 144.536V154.904C583.168 155.24 583 155.696 582.664 156.272C582.376 156.848 582.088 157.136 581.8 157.136H514.336ZM586.426 157.136C585.706 157.136 585.25 156.56 585.058 155.408C585.058 154.496 585.034 153.608 584.986 152.744L584.842 148.784C584.698 144.944 584.626 142.904 584.626 142.664V133.952C584.626 129.68 584.674 124.568 584.77 118.616L584.986 105.512C585.034 103.064 585.058 101.216 585.058 99.9684C585.106 99.6324 585.49 99.3924 586.21 99.2484C589.474 99.0084 591.922 98.8884 593.554 98.8884C594.322 98.8884 596.77 98.8404 600.898 98.7444C603.922 98.6484 606.394 98.6004 608.314 98.6004H638.626C644.482 98.6004 649.354 100.352 653.242 103.856C657.322 107.504 659.362 112.208 659.362 117.968C659.362 122.24 658.378 125.432 656.41 127.544C655.498 128.552 652.714 130.472 648.058 133.304C647.434 133.688 647.002 134.12 646.762 134.6C646.906 135.128 647.194 135.728 647.626 136.4L658.858 154.4V156.704H634.594C633.01 155.12 631.09 152.6 628.834 149.144C627.154 146.408 625.474 143.672 623.794 140.936C623.602 140.648 623.17 139.832 622.498 138.488C622.018 137.48 621.538 136.736 621.058 136.256C620.626 135.776 620.194 135.536 619.762 135.536H609.394C608.962 135.92 608.65 136.208 608.458 136.4C608.17 136.832 607.954 137.144 607.81 137.336V156.2L607.162 156.704C602.218 156.992 598.978 157.136 597.442 157.136H586.426ZM608.458 119.768C609.37 120.392 610.57 120.704 612.058 120.704C614.074 120.704 617.074 120.632 621.058 120.488C625.042 120.296 628.042 120.2 630.058 120.2C631.066 120.2 631.93 119.912 632.65 119.336C633.37 118.76 633.73 117.968 633.73 116.96C633.73 114.656 632.218 113.504 629.194 113.504H609.394C608.482 113.504 608.026 114.608 608.026 116.816C608.026 117.632 608.17 118.616 608.458 119.768ZM662.143 156.704C661.231 156.032 660.775 155.432 660.775 154.904V127.328L660.847 125.096C660.943 115.496 661.015 110 661.063 108.608C661.111 105.296 661.159 102.56 661.207 100.4C661.495 99.2004 662.551 98.6004 664.375 98.6004C666.823 98.6004 670.495 98.6964 675.391 98.8884C680.287 99.0324 683.959 99.1044 686.407 99.1044C687.175 99.6324 690.511 103.304 696.415 110.12C702.175 116.696 705.271 120.344 705.703 121.064C706.135 121.736 706.447 122.216 706.639 122.504C708.511 124.664 709.495 125.792 709.591 125.888L709.879 126.032C710.455 125.888 710.959 125.816 711.391 125.816V100.904C711.391 100.424 711.919 99.6564 712.975 98.6004H722.191C723.343 98.6004 725.095 98.6964 727.447 98.8884C729.847 99.0324 731.623 99.1044 732.775 99.1044C733.687 99.1044 734.143 99.8244 734.143 101.264V129.2C734.143 131.504 734.095 134.48 733.999 138.128C733.903 143.072 733.855 146.048 733.855 147.056C733.807 150.464 733.759 153.08 733.711 154.904C733.519 156.44 732.343 157.208 730.183 157.208C723.127 157.208 716.335 157.04 709.807 156.704C708.655 156.176 707.167 154.808 705.343 152.6L685.111 128.336C684.919 128.288 684.775 128.264 684.679 128.264C683.911 128.264 683.527 128.432 683.527 128.768V155.336C682.903 156.104 682.519 156.56 682.375 156.704C674.743 156.992 670.207 157.136 668.767 157.136C666.655 157.136 664.447 156.992 662.143 156.704Z" fill="#D3312A"/>
</g>
<g filter="url(#filter3_d_9_11)">
<path d="M861.732 372.407L893.31 422.267L862.093 430.098L844.184 380.717L861.732 372.407Z" fill="#D3312A"/>
</g>
<g filter="url(#filter4_d_9_11)">
<path d="M883.097 337.594L950.256 339.949L944.956 384.207L878.88 359.647L883.097 337.594Z" fill="#D3312A"/>
</g>
<g filter="url(#filter5_d_9_11)">
<path d="M216.439 78.1067L186.074 31.5486L215.374 23.7813L232.86 70.0599L216.439 78.1067Z" fill="#D3312A"/>
</g>
<g filter="url(#filter6_d_9_11)">
<path d="M196.757 111.159L133.481 109.786L137.916 68.0395L200.451 90.3383L196.757 111.159Z" fill="#D3312A"/>
</g>
<defs>
<filter id="filter0_d_9_11" x="184.648" y="193.664" width="593.503" height="72.2" filterUnits="userSpaceOnUse" color-interpolation-filters="sRGB">
<feFlood flood-opacity="0" result="BackgroundImageFix"/>
<feColorMatrix in="SourceAlpha" type="matrix" values="0 0 0 0 0 0 0 0 0 0 0 0 0 0 0 0 0 0 127 0" result="hardAlpha"/>
<feOffset dx="5" dy="7"/>
<feGaussianBlur stdDeviation="2"/>
<feComposite in2="hardAlpha" operator="out"/>
<feColorMatrix type="matrix" values="0 0 0 0 0 0 0 0 0 0 0 0 0 0 0 0 0 0 0.25 0"/>
<feBlend mode="normal" in2="BackgroundImageFix" result="effect1_dropShadow_9_11"/>
<feBlend mode="normal" in="SourceGraphic" in2="effect1_dropShadow_9_11" result="shape"/>
</filter>
<filter id="filter1_d_9_11" x="103.72" y="289.232" width="753.22" height="72.272" filterUnits="userSpaceOnUse" color-interpolation-filters="sRGB">
<feFlood flood-opacity="0" result="BackgroundImageFix"/>
<feColorMatrix in="SourceAlpha" type="matrix" values="0 0 0 0 0 0 0 0 0 0 0 0 0 0 0 0 0 0 127 0" result="hardAlpha"/>
<feOffset dx="5" dy="7"/>
<feGaussianBlur stdDeviation="2"/>
<feComposite in2="hardAlpha" operator="out"/>
<feColorMatrix type="matrix" values="0 0 0 0 0 0 0 0 0 0 0 0 0 0 0 0 0 0 0.25 0"/>
<feBlend mode="normal" in2="BackgroundImageFix" result="effect1_dropShadow_9_11"/>
<feBlend mode="normal" in="SourceGraphic" in2="effect1_dropShadow_9_11" result="shape"/>
</filter>
<filter id="filter2_d_9_11" x="218.648" y="97.6644" width="524.495" height="71.84" filterUnits="userSpaceOnUse" color-interpolation-filters="sRGB">
<feFlood flood-opacity="0" result="BackgroundImageFix"/>
<feColorMatrix in="SourceAlpha" type="matrix" values="0 0 0 0 0 0 0 0 0 0 0 0 0 0 0 0 0 0 127 0" result="hardAlpha"/>
<feOffset dx="5" dy="7"/>
<feGaussianBlur stdDeviation="2"/>
<feComposite in2="hardAlpha" operator="out"/>
<feColorMatrix type="matrix" values="0 0 0 0 0 0 0 0 0 0 0 0 0 0 0 0 0 0 0.25 0"/>
<feBlend mode="normal" in2="BackgroundImageFix" result="effect1_dropShadow_9_11"/>
<feBlend mode="normal" in="SourceGraphic" in2="effect1_dropShadow_9_11" result="shape"/>
</filter>
<filter id="filter3_d_9_11" x="834.184" y="367.407" width="59.1264" height="65.6914" filterUnits="userSpaceOnUse" color-interpolation-filters="sRGB">
<feFlood flood-opacity="0" result="BackgroundImageFix"/>
<feColorMatrix in="SourceAlpha" type="matrix" values="0 0 0 0 0 0 0 0 0 0 0 0 0 0 0 0 0 0 127 0" result="hardAlpha"/>
<feOffset dx="-6" dy="-1"/>
<feGaussianBlur stdDeviation="2"/>
<feComposite in2="hardAlpha" operator="out"/>
<feColorMatrix type="matrix" values="0 0 0 0 0 0 0 0 0 0 0 0 0 0 0 0 0 0 0.25 0"/>
<feBlend mode="normal" in2="BackgroundImageFix" result="effect1_dropShadow_9_11"/>
<feBlend mode="normal" in="SourceGraphic" in2="effect1_dropShadow_9_11" result="shape"/>
</filter>
<filter id="filter4_d_9_11" x="868.88" y="332.594" width="81.3759" height="54.6138" filterUnits="userSpaceOnUse" color-interpolation-filters="sRGB">
<feFlood flood-opacity="0" result="BackgroundImageFix"/>
<feColorMatrix in="SourceAlpha" type="matrix" values="0 0 0 0 0 0 0 0 0 0 0 0 0 0 0 0 0 0 127 0" result="hardAlpha"/>
<feOffset dx="-6" dy="-1"/>
<feGaussianBlur stdDeviation="2"/>
<feComposite in2="hardAlpha" operator="out"/>
<feColorMatrix type="matrix" values="0 0 0 0 0 0 0 0 0 0 0 0 0 0 0 0 0 0 0.25 0"/>
<feBlend mode="normal" in2="BackgroundImageFix" result="effect1_dropShadow_9_11"/>
<feBlend mode="normal" in="SourceGraphic" in2="effect1_dropShadow_9_11" result="shape"/>
</filter>
<filter id="filter5_d_9_11" x="176.074" y="18.7813" width="56.7865" height="62.3254" filterUnits="userSpaceOnUse" color-interpolation-filters="sRGB">
<feFlood flood-opacity="0" result="BackgroundImageFix"/>
<feColorMatrix in="SourceAlpha" type="matrix" values="0 0 0 0 0 0 0 0 0 0 0 0 0 0 0 0 0 0 127 0" result="hardAlpha"/>
<feOffset dx="-6" dy="-1"/>
<feGaussianBlur stdDeviation="2"/>
<feComposite in2="hardAlpha" operator="out"/>
<feColorMatrix type="matrix" values="0 0 0 0 0 0 0 0 0 0 0 0 0 0 0 0 0 0 0.25 0"/>
<feBlend mode="normal" in2="BackgroundImageFix" result="effect1_dropShadow_9_11"/>
<feBlend mode="normal" in="SourceGraphic" in2="effect1_dropShadow_9_11" result="shape"/>
</filter>
<filter id="filter6_d_9_11" x="123.481" y="63.0396" width="76.9694" height="51.1198" filterUnits="userSpaceOnUse" color-interpolation-filters="sRGB">
<feFlood flood-opacity="0" result="BackgroundImageFix"/>
<feColorMatrix in="SourceAlpha" type="matrix" values="0 0 0 0 0 0 0 0 0 0 0 0 0 0 0 0 0 0 127 0" result="hardAlpha"/>
<feOffset dx="-6" dy="-1"/>
<feGaussianBlur stdDeviation="2"/>
<feComposite in2="hardAlpha" operator="out"/>
<feColorMatrix type="matrix" values="0 0 0 0 0 0 0 0 0 0 0 0 0 0 0 0 0 0 0.25 0"/>
<feBlend mode="normal" in2="BackgroundImageFix" result="effect1_dropShadow_9_11"/>
<feBlend mode="normal" in="SourceGraphic" in2="effect1_dropShadow_9_11" result="shape"/>
</filter>
</defs>
</svg>
