<svg width="131" height="39" viewBox="0 0 131 39" fill="none" xmlns="http://www.w3.org/2000/svg">
<rect x="0.5" y="0.5" width="130" height="38" rx="19" stroke="#161514"/>
<path d="M10.5313 15.288V13.8H20.0673V15.288H16.2273V25H14.3713V15.288H10.5313ZM23.0537 20.168V25H21.2777V13.8H23.0537V17.736C23.6777 17.064 24.6377 16.68 25.7097 16.68C27.7577 16.68 29.1497 18.056 29.1497 19.8V25H27.3737V20.12C27.3737 18.92 26.5417 18.136 25.2617 18.136C23.9817 18.136 23.0537 18.936 23.0537 20.168ZM35.0958 18.104C33.7838 18.104 32.6798 18.92 32.3598 20.184H37.8318C37.5278 18.92 36.4078 18.104 35.0958 18.104ZM30.5198 20.92C30.5198 18.616 32.5038 16.696 35.1278 16.696C37.7198 16.696 39.6238 18.488 39.6238 20.92V21.464H32.3278C32.5838 22.792 33.7678 23.768 35.2878 23.768C36.3438 23.768 37.2238 23.4 37.8958 22.568L39.1758 23.432C38.2638 24.536 36.9198 25.176 35.2878 25.176C32.5998 25.176 30.5198 23.368 30.5198 20.92ZM44.5921 25V13.8H52.0641V15.288H46.4481V18.648H51.8881V20.12H46.4481V23.528H52.0641V25H44.5921ZM53.1783 21.592H54.9703C55.1943 22.952 56.2663 23.736 57.8983 23.736C59.4183 23.736 60.2823 23.08 60.2823 22.072C60.2823 21.24 59.6423 20.696 58.4263 20.392L56.3783 19.896C54.3143 19.384 53.2903 18.392 53.2903 16.856C53.2903 14.92 55.0023 13.64 57.3223 13.64C59.7543 13.64 61.4983 15.064 61.8023 17.16H60.0103C59.7383 15.832 58.8263 15.064 57.3063 15.064C56.0423 15.064 55.1303 15.688 55.1303 16.728C55.1303 17.544 55.7543 18.072 56.8903 18.36L58.9703 18.856C61.1303 19.4 62.1063 20.344 62.1063 21.912C62.1063 23.784 60.4583 25.16 57.8983 25.16C55.3063 25.16 53.3863 23.72 53.1783 21.592ZM66.1908 20.584H70.6068L68.4148 15.688L66.1908 20.584ZM69.3588 13.8L74.5908 25H72.5908L71.2788 22.056H65.5348L64.2068 25H62.2868L67.5028 13.8H69.3588ZM78.3438 15.288V13.8H87.8798V15.288H84.0398V25H82.1838V15.288H78.3438ZM91.4396 18.104C90.1276 18.104 89.0236 18.92 88.7036 20.184H94.1756C93.8716 18.92 92.7516 18.104 91.4396 18.104ZM86.8636 20.92C86.8636 18.616 88.8476 16.696 91.4716 16.696C94.0636 16.696 95.9676 18.488 95.9676 20.92V21.464H88.6716C88.9276 22.792 90.1116 23.768 91.6316 23.768C92.6876 23.768 93.5676 23.4 94.2396 22.568L95.5196 23.432C94.6076 24.536 93.2636 25.176 91.6316 25.176C88.9436 25.176 86.8636 23.368 86.8636 20.92ZM98.5268 22.744C98.5268 23.432 99.2308 23.912 100.223 23.912C101.503 23.912 102.559 23.112 102.559 22.072V21.416L100.015 21.608C99.0388 21.672 98.5268 22.072 98.5268 22.744ZM96.8148 22.76C96.8148 21.336 97.8868 20.472 99.7428 20.36L102.559 20.184V19.656C102.559 18.712 101.871 18.168 100.703 18.168C99.8388 18.168 99.0548 18.408 98.2868 18.936L97.5028 17.768C98.4308 17.048 99.6148 16.712 100.959 16.712C102.975 16.712 104.303 17.784 104.303 19.448V23.128C104.303 23.416 104.463 23.576 104.815 23.576H105.279V25H104.399C103.551 25 102.895 24.616 102.687 23.976C102.079 24.728 101.087 25.176 99.8708 25.176C98.1108 25.176 96.8148 24.184 96.8148 22.76ZM108.179 20.136V25H106.403V16.856H108.179V17.704C108.787 17.048 109.715 16.68 110.723 16.68C112.083 16.68 113.139 17.272 113.651 18.216C114.243 17.256 115.315 16.68 116.611 16.68C118.595 16.68 119.955 18.04 119.955 19.752V25H118.179V20.088C118.179 18.92 117.363 18.136 116.163 18.136C114.931 18.136 114.067 18.936 114.067 20.136V25H112.291V20.088C112.291 18.92 111.491 18.136 110.291 18.136C109.043 18.136 108.179 18.936 108.179 20.136Z" fill="#161514"/>
</svg>
